<svg width="292" height="40" viewBox="0 0 292 40" fill="none" xmlns="http://www.w3.org/2000/svg">
<rect width="292" height="40" rx="16" fill="#D6E8F1"/>
<path d="M22.6445 15.4688V16.5H16.3633V15.4688H18.8594V14.4023H20.1602V15.4688H22.6445ZM19.5039 16.9102C21.0391 16.9102 22.082 17.6836 22.0938 18.8438C22.082 20.0039 21.0391 20.7773 19.5039 20.7773C17.9688 20.7773 16.9023 20.0039 16.9023 18.8438C16.9023 17.6836 17.9688 16.9102 19.5039 16.9102ZM19.5039 17.8945C18.6953 17.8945 18.168 18.2461 18.168 18.8438C18.168 19.4414 18.6953 19.7812 19.5039 19.7695C20.3125 19.7812 20.8516 19.4414 20.8516 18.8438C20.8516 18.2461 20.3125 17.8945 19.5039 17.8945ZM24.707 14.4492V17.2617H26.1836V18.3281H24.707V21.082H23.4062V14.4492H24.707ZM24.707 21.5742V25.043H23.4062V22.6172H17.6523V21.5742H24.707ZM32.6406 15.5508V16.3008C32.6406 17.25 32.6406 18.5742 32.3477 20.4023L31.0586 20.2969C31.3105 18.6914 31.3398 17.5078 31.3516 16.5938H27.1914V15.5508H32.6406ZM29.9688 18.5742V21.7031C31.0469 21.6621 32.1543 21.5859 33.168 21.457L33.2383 22.4297C31.0469 22.7812 28.6211 22.8281 26.7578 22.8164L26.6289 21.7734C27.2559 21.7676 27.9531 21.7617 28.6797 21.7383V18.5742H29.9688ZM35.0312 14.4492V18.7617H36.5664V19.8633H35.0312V25.043H33.7188V14.4492H35.0312Z" fill="#A1A1A1"/>
</svg>
