<svg width="79" height="36" viewBox="0 0 79 36" fill="none" xmlns="http://www.w3.org/2000/svg">
<g filter="url(#filter0_d_98_1538)">
<rect x="4.15149" y="4" width="70" height="28" rx="14" fill="#5E93B6" shape-rendering="crispEdges"/>
<rect x="4.65149" y="4.5" width="69" height="27" rx="13.5" stroke="#D6E8F1" shape-rendering="crispEdges"/>
<path d="M28.4171 17.7812V18.8242H18.7609V17.7812H22.921V16.7617H20.0148V12.707H21.3038V13.7617H25.8741V12.707H27.1632V16.7617H24.2335V17.7812H28.4171ZM27.2335 19.668V23.043H25.9327V20.6992H19.8273V19.668H27.2335ZM21.3038 15.7188H25.8741V14.7344H21.3038V15.7188ZM34.6515 13.3281C34.6515 14.6641 36.1398 16.0117 38.4015 16.3047L37.8859 17.3594C36.087 17.0898 34.6573 16.2051 33.9718 15.0039C33.2745 16.2051 31.8507 17.0898 30.0695 17.3594L29.5538 16.3047C31.7921 16.0117 33.2804 14.6641 33.2804 13.3281V12.7891H34.6515V13.3281ZM38.7882 18.2734V19.3516H34.5812V23.043H33.2921V19.3516H29.132V18.2734H38.7882ZM48.3741 12.4609V20.1953H47.0734V16.3164H45.1984V15.2617H47.0734V12.4609H48.3741ZM48.6437 21.7773V22.832H41.4249V19.5156H42.7257V21.7773H48.6437ZM43.3937 14.5703C43.3937 15.8477 44.2491 17.1602 45.8898 17.6992L45.2335 18.7422C44.0499 18.3379 43.212 17.5352 42.7491 16.5273C42.2804 17.6465 41.3956 18.5312 40.1476 18.9648L39.4796 17.9102C41.1671 17.3594 42.0695 15.9648 42.0695 14.5586V14.2773H39.8663V13.2227H45.5851V14.2773H43.3937V14.5703ZM54.6437 19.0703C56.9406 19.082 58.3937 19.8086 58.4054 21.0625C58.3937 22.293 56.9406 23.0312 54.6437 23.0312C52.3585 23.0312 50.8937 22.293 50.8937 21.0625C50.8937 19.8086 52.3585 19.082 54.6437 19.0703ZM54.6437 20.0547C53.1202 20.0547 52.1945 20.418 52.2062 21.0625C52.1945 21.6836 53.1202 22.0234 54.6437 22.0234C56.1788 22.0234 57.1046 21.6836 57.1163 21.0625C57.1046 20.418 56.1788 20.0547 54.6437 20.0547ZM58.3351 12.9531V13.832C58.3351 14.6641 58.3351 15.5547 58.0421 16.6445L56.7531 16.5273C57.0167 15.4961 57.0343 14.752 57.0343 13.9844H50.9991V12.9531H58.3351ZM59.507 17.2539V18.3086H49.8976V17.2539H53.6241V15.332H54.9132V17.2539H59.507Z" fill="white"/>
</g>
<defs>
<filter id="filter0_d_98_1538" x="0.151489" y="0" width="78" height="36" filterUnits="userSpaceOnUse" color-interpolation-filters="sRGB">
<feFlood flood-opacity="0" result="BackgroundImageFix"/>
<feColorMatrix in="SourceAlpha" type="matrix" values="0 0 0 0 0 0 0 0 0 0 0 0 0 0 0 0 0 0 127 0" result="hardAlpha"/>
<feOffset/>
<feGaussianBlur stdDeviation="2"/>
<feComposite in2="hardAlpha" operator="out"/>
<feColorMatrix type="matrix" values="0 0 0 0 0.839216 0 0 0 0 0.909804 0 0 0 0 0.945098 0 0 0 1 0"/>
<feBlend mode="normal" in2="BackgroundImageFix" result="effect1_dropShadow_98_1538"/>
<feBlend mode="normal" in="SourceGraphic" in2="effect1_dropShadow_98_1538" result="shape"/>
</filter>
</defs>
</svg>
