<svg width="78" height="36" viewBox="0 0 78 36" fill="none" xmlns="http://www.w3.org/2000/svg">
<g filter="url(#filter0_d_98_1537)">
<rect x="4.15149" y="4" width="69" height="28" rx="14" fill="white" shape-rendering="crispEdges"/>
<rect x="4.65149" y="4.5" width="68" height="27" rx="13.5" stroke="#D6E8F1" shape-rendering="crispEdges"/>
<path d="M27.132 12.4609V20.1953H25.8312V16.3164H23.9562V15.2617H25.8312V12.4609H27.132ZM27.4015 21.7773V22.832H20.1827V19.5156H21.4835V21.7773H27.4015ZM22.1515 14.5703C22.1515 15.8477 23.007 17.1602 24.6476 17.6992L23.9913 18.7422C22.8077 18.3379 21.9698 17.5352 21.507 16.5273C21.0382 17.6465 20.1534 18.5312 18.9054 18.9648L18.2374 17.9102C19.9249 17.3594 20.8273 15.9648 20.8273 14.5586V14.2773H18.6241V13.2227H24.3429V14.2773H22.1515V14.5703ZM33.4015 19.0703C35.6984 19.082 37.1515 19.8086 37.1632 21.0625C37.1515 22.293 35.6984 23.0312 33.4015 23.0312C31.1163 23.0312 29.6515 22.293 29.6515 21.0625C29.6515 19.8086 31.1163 19.082 33.4015 19.0703ZM33.4015 20.0547C31.8781 20.0547 30.9523 20.418 30.964 21.0625C30.9523 21.6836 31.8781 22.0234 33.4015 22.0234C34.9366 22.0234 35.8624 21.6836 35.8741 21.0625C35.8624 20.418 34.9366 20.0547 33.4015 20.0547ZM37.0929 12.9531V13.832C37.0929 14.6641 37.0929 15.5547 36.7999 16.6445L35.5109 16.5273C35.7745 15.4961 35.7921 14.752 35.7921 13.9844H29.757V12.9531H37.0929ZM38.2648 17.2539V18.3086H28.6554V17.2539H32.382V15.332H33.671V17.2539H38.2648ZM47.8273 12.4609V18.4492H46.5148V12.4609H47.8273ZM47.8273 18.9766V22.9141H40.796V18.9766H47.8273ZM42.0851 20.0078V21.8594H46.5499V20.0078H42.0851ZM42.9523 13.8906C42.9523 15.2383 43.8546 16.5039 45.507 17.0312L44.8741 18.0273C43.6495 17.6465 42.7706 16.8672 42.296 15.8477C41.8097 16.9434 40.9191 17.8164 39.6476 18.2383L39.0031 17.207C40.7257 16.6562 41.6046 15.2852 41.6046 13.8906V12.8594H42.9523V13.8906ZM57.7531 12.4492V16.8203H59.2413V17.9102H57.7531V23.043H56.4406V12.4492H57.7531ZM49.2452 20.1016C50.048 20.1016 50.9796 20.1016 51.9523 20.0781V19.082C50.798 18.8887 50.0421 18.1621 50.0538 17.1719C50.0421 15.9766 51.0968 15.1797 52.6202 15.1797C54.1202 15.1797 55.1866 15.9766 55.1984 17.1719C55.1866 18.168 54.4191 18.8945 53.2648 19.082V20.0312C54.1554 19.9844 55.046 19.9141 55.8781 19.7969L55.9601 20.7461C53.6866 21.1562 51.2374 21.1797 49.4327 21.1797L49.2452 20.1016ZM55.7609 13.668V14.6992H49.4445V13.668H51.9523V12.4961H53.2648V13.668H55.7609ZM52.6202 16.1758C51.8116 16.1875 51.2843 16.5508 51.2843 17.1719C51.2843 17.7812 51.8116 18.1445 52.6202 18.1328C53.4171 18.1445 53.9445 17.7812 53.9445 17.1719C53.9445 16.5508 53.4171 16.1875 52.6202 16.1758Z" fill="#5E93B6"/>
</g>
<defs>
<filter id="filter0_d_98_1537" x="0.151489" y="0" width="77" height="36" filterUnits="userSpaceOnUse" color-interpolation-filters="sRGB">
<feFlood flood-opacity="0" result="BackgroundImageFix"/>
<feColorMatrix in="SourceAlpha" type="matrix" values="0 0 0 0 0 0 0 0 0 0 0 0 0 0 0 0 0 0 127 0" result="hardAlpha"/>
<feOffset/>
<feGaussianBlur stdDeviation="2"/>
<feComposite in2="hardAlpha" operator="out"/>
<feColorMatrix type="matrix" values="0 0 0 0 0.368627 0 0 0 0 0.576471 0 0 0 0 0.713726 0 0 0 1 0"/>
<feBlend mode="normal" in2="BackgroundImageFix" result="effect1_dropShadow_98_1537"/>
<feBlend mode="normal" in="SourceGraphic" in2="effect1_dropShadow_98_1537" result="shape"/>
</filter>
</defs>
</svg>
