<svg width="78" height="36" viewBox="0 0 78 36" fill="none" xmlns="http://www.w3.org/2000/svg">
<g filter="url(#filter0_d_98_1539)">
<rect x="4.15149" y="4" width="69" height="28" rx="14" fill="white" shape-rendering="crispEdges"/>
<rect x="4.65149" y="4.5" width="68" height="27" rx="13.5" stroke="#D6E8F1" shape-rendering="crispEdges"/>
<path d="M33.1144 18.6133V19.6445H28.8956V23.043H27.6066V19.6445H23.4347V18.6133H33.1144ZM25.8956 12.8711V14.1719H30.63V12.8711H31.9425V17.5117H24.6066V12.8711H25.8956ZM25.8956 16.457H30.63V15.2031H25.8956V16.457ZM42.6886 12.4609V20.1953H41.3878V16.3164H39.5128V15.2617H41.3878V12.4609H42.6886ZM42.9581 21.7773V22.832H35.7394V19.5156H37.0402V21.7773H42.9581ZM37.7081 14.5703C37.7081 15.8477 38.5636 17.1602 40.2042 17.6992L39.548 18.7422C38.3644 18.3379 37.5265 17.5352 37.0636 16.5273C36.5948 17.6465 35.7101 18.5312 34.462 18.9648L33.7941 17.9102C35.4816 17.3594 36.3839 15.9648 36.3839 14.5586V14.2773H34.1808V13.2227H39.8995V14.2773H37.7081V14.5703ZM48.9581 19.0703C51.255 19.082 52.7081 19.8086 52.7198 21.0625C52.7081 22.293 51.255 23.0312 48.9581 23.0312C46.673 23.0312 45.2081 22.293 45.2081 21.0625C45.2081 19.8086 46.673 19.082 48.9581 19.0703ZM48.9581 20.0547C47.4347 20.0547 46.5089 20.418 46.5206 21.0625C46.5089 21.6836 47.4347 22.0234 48.9581 22.0234C50.4933 22.0234 51.4191 21.6836 51.4308 21.0625C51.4191 20.418 50.4933 20.0547 48.9581 20.0547ZM52.6495 12.9531V13.832C52.6495 14.6641 52.6495 15.5547 52.3566 16.6445L51.0675 16.5273C51.3312 15.4961 51.3488 14.752 51.3488 13.9844H45.3136V12.9531H52.6495ZM53.8214 17.2539V18.3086H44.212V17.2539H47.9386V15.332H49.2277V17.2539H53.8214Z" fill="#5E93B6"/>
</g>
<defs>
<filter id="filter0_d_98_1539" x="0.151489" y="0" width="77" height="36" filterUnits="userSpaceOnUse" color-interpolation-filters="sRGB">
<feFlood flood-opacity="0" result="BackgroundImageFix"/>
<feColorMatrix in="SourceAlpha" type="matrix" values="0 0 0 0 0 0 0 0 0 0 0 0 0 0 0 0 0 0 127 0" result="hardAlpha"/>
<feOffset/>
<feGaussianBlur stdDeviation="2"/>
<feComposite in2="hardAlpha" operator="out"/>
<feColorMatrix type="matrix" values="0 0 0 0 0.368627 0 0 0 0 0.576471 0 0 0 0 0.713726 0 0 0 1 0"/>
<feBlend mode="normal" in2="BackgroundImageFix" result="effect1_dropShadow_98_1539"/>
<feBlend mode="normal" in="SourceGraphic" in2="effect1_dropShadow_98_1539" result="shape"/>
</filter>
</defs>
</svg>
