<svg width="320" height="20" viewBox="0 0 320 20" fill="none" xmlns="http://www.w3.org/2000/svg">
<path d="M9.23438 3.44922V14.0547H7.93359V8.64062H5.88281V7.58594H7.93359V3.44922H9.23438ZM4.21875 6.8125C4.20703 8.41797 5.16797 10.1289 6.84375 10.8672L6.14062 11.8633C4.92773 11.3477 4.04883 10.2871 3.58594 9.01562C3.11719 10.3633 2.24414 11.4941 1.03125 12.0391L0.328125 11.0312C1.98047 10.2812 2.91797 8.47656 2.91797 6.8125V6.26172H0.644531V5.21875H2.92969V3.67188H4.23047V5.21875H6.44531V6.26172H4.21875V6.8125ZM15.5391 3.66016C17.8828 3.66016 19.3477 4.43359 19.3594 5.72266C19.3477 6.98828 17.8828 7.75 15.5391 7.73828C13.2188 7.75 11.7188 6.98828 11.7188 5.72266C11.7188 4.43359 13.2188 3.66016 15.5391 3.66016ZM15.5391 4.67969C13.9922 4.67969 13.0664 5.04297 13.0781 5.72266C13.0664 6.36719 13.9922 6.71875 15.5391 6.73047C17.0859 6.71875 18.0117 6.36719 18.0117 5.72266C18.0117 5.04297 17.0859 4.67969 15.5391 4.67969ZM19.207 10.3516V13.9141H11.8594V10.3516H19.207ZM13.1484 11.3828V12.8594H17.9414V11.3828H13.1484ZM20.3789 8.45312V9.50781H10.7227V8.45312H20.3789ZM28.7578 4.04688C31.0312 4.04688 32.707 5.18359 32.707 6.90625C32.707 8.49414 31.3418 9.55469 29.4023 9.74219V11.6875H33.6211V12.7539H23.9414V11.6875H28.1133V9.74219C26.1855 9.55469 24.8203 8.49414 24.832 6.90625C24.8203 5.18359 26.4961 4.04688 28.7578 4.04688ZM28.7578 5.10156C27.2109 5.08984 26.0977 5.79297 26.1094 6.90625C26.0977 8.05469 27.2109 8.73438 28.7578 8.73438C30.3281 8.73438 31.4297 8.05469 31.4297 6.90625C31.4297 5.79297 30.3281 5.08984 28.7578 5.10156ZM43.1836 3.44922V9.58984H41.8828V7.65625H40.0078V6.61328H41.8828V5.64062H40.0078V4.58594H41.8828V3.44922H43.1836ZM38.1562 4.86719C38.1562 6.32031 38.9883 7.77344 40.6289 8.37109L39.8789 9.40234C38.7598 8.96289 37.957 8.11328 37.5117 7.05859C37.0488 8.18945 36.2051 9.0918 35.0039 9.55469L34.2656 8.52344C35.9766 7.89062 36.8438 6.4375 36.8438 4.86719V3.83594H38.1562V4.86719ZM38.1914 10.3164C38.1797 11.2129 38.5898 12.1387 39.5039 12.7305C40.418 12.0918 40.8281 11.1133 40.8398 10.3164V9.96484H42.1172V10.3164C42.1172 11.418 42.7617 12.4844 44.1797 12.9297L43.5234 13.9023C42.498 13.5391 41.8184 12.8594 41.4609 12.0039C41.1094 12.8477 40.4766 13.5977 39.5039 13.9844C38.5137 13.6094 37.8809 12.8828 37.5469 12.0273C37.166 12.8535 36.5039 13.5332 35.5195 13.9023L34.8867 12.9297C36.2578 12.4609 36.9141 11.3594 36.9258 10.3164V9.96484H38.1914V10.3164ZM54.5508 7.53906V8.60547H52.9805V14.0195H51.6797V3.44922H52.9805V7.53906H54.5508ZM46.3477 4.48047V10.3281C47.7598 10.3047 49.2656 10.1816 50.8594 9.84766L51 10.9492C49.2188 11.3008 47.5195 11.4062 45.9492 11.4062H45.0586V4.48047H46.3477ZM64.7344 11.6875V12.7539H55.0547V11.6875H57.293V9.00391C56.4492 8.52344 55.9395 7.76758 55.9453 6.82422C55.9336 5.13672 57.5977 4.02344 59.8711 4.02344C62.1562 4.02344 63.8203 5.13672 63.8203 6.82422C63.8203 7.75 63.3281 8.49414 62.5078 8.98047V11.6875H64.7344ZM59.8711 5.05469C58.2891 5.05469 57.2109 5.72266 57.2227 6.82422C57.2109 7.91406 58.2891 8.59375 59.8711 8.59375C61.4531 8.59375 62.543 7.91406 62.543 6.82422C62.543 5.72266 61.4531 5.05469 59.8711 5.05469ZM58.582 11.6875H61.1836V9.47266C60.7793 9.56641 60.3398 9.61328 59.8711 9.61328C59.4141 9.61328 58.9805 9.56641 58.582 9.48438V11.6875ZM67.2188 10.3984C67.2305 8.91016 67.6523 8.45312 68.3906 7.99609C68.8945 7.67969 69.2695 7.28125 69.2695 6.69531C69.2695 6.03906 68.7656 5.61719 68.1211 5.61719C67.5352 5.61719 66.9727 5.99219 66.9375 6.77734H65.4727C65.5078 5.20703 66.6914 4.39844 68.1328 4.39844C69.7148 4.39844 70.8047 5.27734 70.8047 6.67188C70.8047 7.62109 70.3242 8.24219 69.5625 8.69922C68.8828 9.10938 68.6016 9.51953 68.5898 10.3984V10.5039H67.2188V10.3984ZM67.9453 13.0938C67.4414 13.0938 67.0312 12.6836 67.0312 12.1797C67.0312 11.6875 67.4414 11.2773 67.9453 11.2773C68.4258 11.2773 68.8477 11.6875 68.8477 12.1797C68.8477 12.6836 68.4258 13.0938 67.9453 13.0938Z" fill="#7C7B7B"/>
<path d="M251.176 3.44922V14.043H249.875V3.44922H251.176ZM242.398 11.1016C243.242 11.0957 244.197 11.0957 245.199 11.0664V10.0938C244.004 9.90625 243.23 9.17383 243.23 8.17188C243.23 6.97656 244.285 6.17969 245.832 6.17969C247.391 6.17969 248.469 6.97656 248.469 8.17188C248.469 9.16797 247.689 9.89453 246.5 10.082V11.0195C247.432 10.9785 248.369 10.9023 249.254 10.7852L249.348 11.7578C247.016 12.1562 244.496 12.1797 242.586 12.1797L242.398 11.1016ZM249.066 4.66797V5.69922H242.621V4.66797H245.199V3.48438H246.5V4.66797H249.066ZM245.832 7.17578C245.035 7.1875 244.461 7.55078 244.473 8.17188C244.461 8.78125 245.035 9.14453 245.832 9.13281C246.664 9.14453 247.215 8.78125 247.215 8.17188C247.215 7.55078 246.664 7.1875 245.832 7.17578ZM261.605 3.46094V11.4766H260.293V10.5508H258.219V9.63672H260.293V3.46094H261.605ZM261.852 12.7773V13.832H254.082V10.7031H255.383V12.7773H261.852ZM252.676 8.21875C254.633 8.20703 257.258 8.18359 259.508 7.90234L259.578 8.83984C258.705 8.98633 257.803 9.08594 256.906 9.14453V11.1836H255.605V9.21484C254.615 9.25586 253.672 9.26172 252.84 9.26172L252.676 8.21875ZM256.133 3.84766C257.68 3.84766 258.758 4.60938 258.77 5.72266C258.758 6.85938 257.68 7.58594 256.133 7.58594C254.562 7.58594 253.484 6.85938 253.484 5.72266C253.484 4.60938 254.562 3.84766 256.133 3.84766ZM256.133 4.80859C255.289 4.80859 254.715 5.14844 254.715 5.72266C254.715 6.29688 255.289 6.63672 256.133 6.63672C256.941 6.63672 257.516 6.29688 257.527 5.72266C257.516 5.14844 256.941 4.80859 256.133 4.80859ZM271.391 3.44922V7.58594H272.961V8.67578H271.391V14.0195H270.09V3.44922H271.391ZM268.59 4.55078C268.59 7.66797 267.301 10.3984 263.773 12.1328L263.035 11.125C265.613 9.8418 267.008 8.03711 267.277 5.62891H263.609V4.55078H268.59ZM282.289 3.44922V9.13281H280.977V3.44922H282.289ZM276.57 9.625V10.7148H280.988V9.625H282.289V13.9141H275.281V9.625H276.57ZM276.57 12.8594H280.988V11.7344H276.57V12.8594ZM276.512 3.91797C278.141 3.90625 279.359 4.92578 279.359 6.40234C279.359 7.84375 278.141 8.86328 276.512 8.86328C274.871 8.86328 273.652 7.84375 273.652 6.40234C273.652 4.92578 274.871 3.90625 276.512 3.91797ZM276.512 5.00781C275.586 5.00781 274.918 5.54688 274.93 6.40234C274.918 7.24609 275.586 7.78516 276.512 7.79688C277.426 7.78516 278.082 7.24609 278.082 6.40234C278.082 5.54688 277.426 5.00781 276.512 5.00781Z" fill="#1A264F"/>
<path d="M313.469 7.93748L309.839 4.11582C309.616 3.88143 309.314 3.7498 308.999 3.74988C308.684 3.74996 308.382 3.88174 308.159 4.11623C307.936 4.35073 307.811 4.66873 307.812 5.00028C307.812 5.33183 307.937 5.64977 308.16 5.88415L311.79 9.70498C311.827 9.74369 311.856 9.78967 311.876 9.84029C311.896 9.89091 311.906 9.94518 311.906 9.99998C311.906 10.0548 311.896 10.1091 311.876 10.1597C311.856 10.2103 311.827 10.2563 311.79 10.295L308.16 14.1158C307.937 14.3502 307.812 14.6681 307.812 14.9997C307.811 15.3312 307.936 15.6492 308.159 15.8837C308.382 16.1182 308.684 16.25 308.999 16.2501C309.314 16.2502 309.616 16.1185 309.839 15.8842L313.469 12.0625C313.988 11.515 314.279 10.7732 314.279 9.99998C314.279 9.22672 313.988 8.48501 313.469 7.93748Z" fill="#1A264F"/>
</svg>
