<svg width="333" height="107" viewBox="0 0 333 107" fill="none" xmlns="http://www.w3.org/2000/svg">
<rect width="333" height="107" rx="20" fill="#D6E8F1"/>
<path d="M127.734 46.7656V52.1406H129.906V53.6094H127.734V60.8906H126V46.7656H127.734ZM118.891 47.9219V51.4531H122.219V47.9219H123.953V57.5781H117.172V47.9219H118.891ZM118.891 56.1562H122.219V52.8125H118.891V56.1562ZM143.406 57.8125V59.25H130.5V57.8125H136.062V55.5156H132.031V50.8906H140.156V49.1406H132V47.7344H141.875V52.2656H133.766V54.0938H142.203V55.5156H137.781V57.8125H143.406ZM161.031 57.8125V59.25H148.125V57.8125H153.688V55.5156H149.656V50.8906H157.781V49.1406H149.625V47.7344H159.5V52.2656H151.391V54.0938H159.828V55.5156H155.406V57.8125H161.031ZM173.188 48.1406V49.7344C173.188 51.625 173.188 53.5781 172.672 56.5469L170.906 56.3906C171.453 53.6094 171.453 51.5625 171.453 49.7344V49.5469H163.312V48.1406H173.188ZM174.828 57.5312V58.9531H161.953V57.5312H174.828ZM187.547 46.7812V56.9844H185.797V46.7812H187.547ZM187.938 59.2031V60.6094H178.203V55.9531H179.953V59.2031H187.938ZM179.844 47.7031C181.984 47.7031 183.641 49.1875 183.641 51.2344C183.641 53.3281 181.984 54.7812 179.844 54.7812C177.688 54.7812 176.031 53.3281 176.031 51.2344C176.031 49.1875 177.688 47.7031 179.844 47.7031ZM179.844 49.2188C178.641 49.2188 177.719 50.0156 177.734 51.2344C177.719 52.4844 178.641 53.2656 179.844 53.2656C181.016 53.2656 181.938 52.4844 181.938 51.2344C181.938 50.0156 181.016 49.2188 179.844 49.2188ZM200.672 46.7656V52.3906H202.844V53.8281H200.672V60.8906H198.953V46.7656H200.672ZM197.859 48.9375V50.3281H189.531V48.9375H192.875V46.9688H194.609V48.9375H197.859ZM193.75 51.25C195.781 51.25 197.297 52.625 197.297 54.5781C197.297 56.5312 195.781 57.8906 193.75 57.8906C191.688 57.8906 190.172 56.5312 190.188 54.5781C190.172 52.625 191.688 51.25 193.75 51.25ZM193.75 52.6719C192.641 52.6719 191.844 53.4219 191.844 54.5781C191.844 55.7344 192.641 56.4688 193.75 56.4531C194.828 56.4688 195.625 55.7344 195.641 54.5781C195.625 53.4219 194.828 52.6719 193.75 52.6719ZM215.234 46.7656V60.8906H213.484V46.7656H215.234ZM211.016 48.2656C211.016 52.4688 209.391 56.0469 204.438 58.3906L203.531 57C207.227 55.2422 208.945 52.8516 209.25 49.6406H204.25V48.2656H211.016Z" fill="#1A264F"/>
</svg>
