<svg width="264" height="40" viewBox="0 0 264 40" fill="none" xmlns="http://www.w3.org/2000/svg">
<rect width="264" height="40" rx="16" fill="#626262"/>
<path d="M44.7656 24.3125V25.75H31.8594V24.3125H37.4219V22.0156H33.3906V17.3906H41.5156V15.6406H33.3594V14.2344H43.2344V18.7656H35.125V20.5938H43.5625V22.0156H39.1406V24.3125H44.7656ZM56.9219 14.6406V16.2344C56.9219 18.125 56.9219 20.0781 56.4062 23.0469L54.6406 22.8906C55.1875 20.1094 55.1875 18.0625 55.1875 16.2344V16.0469H47.0469V14.6406H56.9219ZM58.5625 24.0312V25.4531H45.6875V24.0312H58.5625ZM71.2812 13.2812V23.4844H69.5312V13.2812H71.2812ZM71.6719 25.7031V27.1094H61.9375V22.4531H63.6875V25.7031H71.6719ZM63.5781 14.2031C65.7188 14.2031 67.375 15.6875 67.375 17.7344C67.375 19.8281 65.7188 21.2812 63.5781 21.2812C61.4219 21.2812 59.7656 19.8281 59.7656 17.7344C59.7656 15.6875 61.4219 14.2031 63.5781 14.2031ZM63.5781 15.7188C62.375 15.7188 61.4531 16.5156 61.4688 17.7344C61.4531 18.9844 62.375 19.7656 63.5781 19.7656C64.75 19.7656 65.6719 18.9844 65.6719 17.7344C65.6719 16.5156 64.75 15.7188 63.5781 15.7188ZM89.4062 13.2656V27.3906H87.75V13.2656H89.4062ZM86.5938 13.5625V26.6875H84.9375V20.0312H83.375V18.4844H84.9375V13.5625H86.5938ZM83.7344 14.9375V16.3438H82.7344V22.4375C83.1797 22.3984 83.6016 22.3516 84 22.2969L84.1094 23.5625C81.8906 24.0156 78.9844 24.0625 77.1875 24.0625L76.9844 22.625L78.2656 22.6094V16.3438H77.2656V14.9375H83.7344ZM79.8281 22.5781L81.1406 22.5312V16.3438H79.8281V22.5781ZM102.719 13.2656V27.4062H100.969V13.2656H102.719ZM95.1094 14.2969C97.2344 14.2969 98.7812 16.2344 98.7969 19.2812C98.7812 22.3594 97.2344 24.2812 95.1094 24.2812C92.9688 24.2812 91.4219 22.3594 91.4219 19.2812C91.4219 16.2344 92.9688 14.2969 95.1094 14.2969ZM95.1094 15.8594C93.9062 15.8594 93.0938 17.125 93.0938 19.2812C93.0938 21.4531 93.9062 22.7188 95.1094 22.7188C96.2969 22.7188 97.1094 21.4531 97.1094 19.2812C97.1094 17.125 96.2969 15.8594 95.1094 15.8594ZM110.125 17.2812C110.125 19.5938 111.484 22.0312 113.766 22.9844L112.812 24.3594C111.141 23.6406 109.922 22.1562 109.281 20.3594C108.625 22.2969 107.391 23.9219 105.734 24.7031L104.734 23.3438C106.969 22.3125 108.359 19.6875 108.359 17.2812V16.0938H105.25V14.6562H113.219V16.0938H110.125V17.2812ZM116.547 13.2656V27.3906H114.797V13.2656H116.547ZM133.484 13.2656V18.7812H135.578V20.2344H133.484V27.3594H131.75V13.2656H133.484ZM129.75 14.7344C129.75 18.8906 128.031 22.5312 123.328 24.8438L122.344 23.5C125.781 21.7891 127.641 19.3828 128 16.1719H123.109V14.7344H129.75ZM148.047 13.2656V27.3906H146.297V13.2656H148.047ZM143.828 14.7656C143.828 18.9688 142.203 22.5469 137.25 24.8906L136.344 23.5C140.039 21.7422 141.758 19.3516 142.062 16.1406H137.062V14.7656H143.828Z" fill="white"/>
<g clip-path="url(#clip0_233_1392)">
<path d="M239.85 21.5038C239.709 21.6445 239.519 21.7234 239.32 21.7234C239.121 21.7234 238.93 21.6445 238.79 21.5038L236.429 19.1414C236.154 18.8665 236 18.4937 236 18.1051C236 17.7165 236.154 17.3438 236.429 17.0689L238.792 14.7064C238.934 14.5767 239.121 14.5069 239.314 14.5116C239.507 14.5163 239.691 14.5951 239.827 14.7315C239.963 14.868 240.041 15.0518 240.046 15.2445C240.05 15.4373 239.98 15.6244 239.85 15.7669L238.234 17.3504H245.34C246.045 17.351 246.721 17.6314 247.22 18.13C247.719 18.6286 247.999 19.3047 248 20.0098V23.3503C247.999 24.0554 247.719 24.7313 247.22 25.2298C246.722 25.7283 246.046 26.0087 245.341 26.0093H238.659C238.46 26.0093 238.269 25.9303 238.129 25.7897C237.988 25.649 237.909 25.4583 237.909 25.2593C237.909 25.0604 237.988 24.8697 238.129 24.729C238.269 24.5884 238.46 24.5093 238.659 24.5093H245.341C245.648 24.5091 245.943 24.3869 246.16 24.1696C246.377 23.9523 246.5 23.6577 246.5 23.3503V20.0098C246.5 19.7023 246.377 19.4075 246.16 19.1901C245.942 18.9727 245.648 18.8505 245.34 18.8504H238.261L239.85 20.4433C239.991 20.584 240.07 20.7747 240.07 20.9736C240.07 21.1725 239.991 21.3632 239.85 21.5038Z" fill="white"/>
</g>
<defs>
<clipPath id="clip0_233_1392">
<rect width="12" height="12" fill="white" transform="translate(236 14)"/>
</clipPath>
</defs>
</svg>
