<svg width="264" height="40" viewBox="0 0 264 40" fill="none" xmlns="http://www.w3.org/2000/svg">
<rect width="264" height="40" rx="16" fill="#1A264F"/>
<path d="M127.719 16.1562C127.719 17.6719 128.859 19.1562 131.078 19.75L130.297 21.0781C128.656 20.6484 127.5 19.7109 126.875 18.5C126.242 19.8281 125.055 20.8594 123.391 21.3438L122.562 19.9688C124.797 19.375 125.984 17.8125 125.984 16.1562V16.1094H123.031V14.7344H125.984V13.2031H127.734V14.7344H130.672V16.1094H127.719V16.1562ZM133.781 13.2656V16.5469H135.75V17.9844H133.781V21.3594H132.047V13.2656H133.781ZM133.984 22.0156V23.4062H130.25C130.578 24.5781 132.164 25.6719 134.578 26.0156L133.953 27.3438C131.742 27.0312 130.07 26.0859 129.25 24.7969C128.438 26.0781 126.781 27 124.594 27.3125L123.953 26C126.375 25.6641 127.945 24.6094 128.281 23.4062H124.531V22.0156H133.984ZM148.266 13.2656V27.3906H146.516V13.2656H148.266ZM144.047 14.7656C144.047 18.9688 142.422 22.5469 137.469 24.8906L136.562 23.5C140.258 21.7422 141.977 19.3516 142.281 16.1406H137.281V14.7656H144.047Z" fill="white"/>
<g clip-path="url(#clip0_233_1338)">
<path d="M247.781 24.7228L245.458 22.3992C247.196 20.0768 246.722 16.7853 244.4 15.0475C242.078 13.3096 238.786 13.7835 237.048 16.1058C235.31 18.4282 235.784 21.7197 238.107 23.4576C239.972 24.8536 242.534 24.8536 244.4 23.4576L246.724 25.7811C247.016 26.0731 247.489 26.0731 247.781 25.7811C248.073 25.4891 248.073 25.0157 247.781 24.7238L247.781 24.7228ZM241.273 23.0091C239.209 23.0091 237.535 21.3359 237.535 19.2719C237.535 17.2079 239.209 15.5346 241.273 15.5346C243.337 15.5346 245.01 17.2079 245.01 19.2719C245.008 21.335 243.336 23.0069 241.273 23.0091Z" fill="white"/>
</g>
<defs>
<clipPath id="clip0_233_1338">
<rect width="12" height="12" fill="white" transform="translate(236 14)"/>
</clipPath>
</defs>
</svg>
