<svg width="13" height="12" viewBox="0 0 13 12" fill="none" xmlns="http://www.w3.org/2000/svg">
<g clip-path="url(#clip0_86_2702)">
<path d="M10.6501 3.99995C10.6516 3.35238 10.4857 2.71415 10.1665 2.14009C9.84733 1.56604 9.38449 1.07332 8.81776 0.704288C8.25102 0.335252 7.59733 0.100929 6.91286 0.0214517C6.22839 -0.0580253 5.5336 0.0197206 4.88819 0.248009C4.24278 0.476297 3.66605 0.848302 3.20756 1.33206C2.74906 1.81582 2.42251 2.39686 2.25596 3.02527C2.08941 3.65368 2.08785 4.31066 2.2514 4.93976C2.41495 5.56886 2.73872 6.15127 3.19491 6.63695V10.75C3.1949 10.9854 3.26574 11.2161 3.39925 11.4154C3.53276 11.6148 3.72353 11.7746 3.94957 11.8766C4.17561 11.9786 4.42774 12.0186 4.67691 11.9919C4.92609 11.9653 5.16218 11.8731 5.35799 11.726L6.39 10.95L7.42202 11.725C7.61776 11.872 7.85375 11.9642 8.10283 11.9909C8.35191 12.0176 8.60395 11.9777 8.82996 11.8758C9.05596 11.774 9.24674 11.6143 9.38033 11.4151C9.51392 11.2159 9.5849 10.9853 9.5851 10.75V6.63695C10.2711 5.90955 10.65 4.97157 10.6501 3.99995ZM6.39 0.999952C7.02193 0.999952 7.63967 1.1759 8.1651 1.50554C8.69054 1.83519 9.10006 2.30372 9.34189 2.8519C9.58372 3.40008 9.64699 4.00328 9.52371 4.58522C9.40042 5.16717 9.09612 5.70171 8.64928 6.12127C8.20244 6.54083 7.63312 6.82655 7.01334 6.94231C6.39355 7.05806 5.75112 6.99865 5.16729 6.77159C4.58346 6.54453 4.08446 6.16001 3.73338 5.66666C3.38229 5.17332 3.19491 4.5933 3.19491 3.99995C3.19575 3.20455 3.53265 2.44195 4.13166 1.87951C4.73068 1.31707 5.54287 1.00075 6.39 0.999952ZM8.36937 10.974C8.32431 10.9949 8.27377 11.0032 8.22381 10.9979C8.17384 10.9926 8.12658 10.9739 8.08766 10.944L6.39 9.66845L4.69287 10.944C4.6538 10.9734 4.60667 10.9919 4.5569 10.9973C4.50713 11.0028 4.45673 10.9949 4.41151 10.9746C4.36629 10.9544 4.32808 10.9225 4.30127 10.8828C4.27445 10.843 4.26013 10.797 4.25994 10.75V7.45895C4.9064 7.81324 5.64148 7.99993 6.39 7.99993C7.13852 7.99993 7.87361 7.81324 8.52007 7.45895V10.75C8.52066 10.797 8.50675 10.8431 8.48 10.8829C8.45326 10.9226 8.41484 10.9543 8.36937 10.974Z" fill="#626262"/>
</g>
<defs>
<clipPath id="clip0_86_2702">
<rect width="12.7804" height="12" fill="white"/>
</clipPath>
</defs>
</svg>
