<svg width="12" height="12" viewBox="0 0 12 12" fill="none" xmlns="http://www.w3.org/2000/svg">
<g clip-path="url(#clip0_86_2558)">
<path d="M8.75 0H3.25C2.52094 0.000926129 1.822 0.290955 1.30648 0.806479C0.790955 1.322 0.500926 2.02094 0.5 2.75V10.236C0.500376 10.5862 0.605801 10.9282 0.802643 11.2178C0.999485 11.5074 1.27869 11.7313 1.60415 11.8606C1.92961 11.9898 2.28636 12.0184 2.62826 11.9428C2.97017 11.8671 3.2815 11.6905 3.522 11.436L5.978 8.836L8.4845 11.461C8.72576 11.7136 9.0371 11.8882 9.37844 11.9624C9.71979 12.0365 10.0755 12.0069 10.3998 11.8772C10.7242 11.7474 11.0023 11.5236 11.1983 11.2345C11.3944 10.9455 11.4995 10.6043 11.5 10.255V2.75C11.4991 2.02094 11.209 1.322 10.6935 0.806479C10.178 0.290955 9.47906 0.000926129 8.75 0V0ZM10 10.255C9.99991 10.3049 9.98491 10.3535 9.95693 10.3948C9.92895 10.4361 9.88927 10.468 9.84299 10.4866C9.79671 10.5051 9.74594 10.5094 9.6972 10.4989C9.64847 10.4884 9.604 10.4635 9.5695 10.4275L6.5195 7.232C6.44922 7.15842 6.36471 7.0999 6.2711 7.06002C6.1775 7.02013 6.07675 6.99971 5.975 7C5.87329 7.0003 5.7727 7.02129 5.67935 7.06169C5.586 7.10209 5.50184 7.16106 5.432 7.235L2.432 10.4075C2.39852 10.4453 2.35394 10.4716 2.30464 10.4825C2.25534 10.4935 2.20384 10.4886 2.1575 10.4685C2.10976 10.4518 2.06867 10.4202 2.0403 10.3783C2.01194 10.3364 1.99781 10.2865 2 10.236V2.75C2 2.41848 2.1317 2.10054 2.36612 1.86612C2.60054 1.6317 2.91848 1.5 3.25 1.5H8.75C9.08152 1.5 9.39946 1.6317 9.63388 1.86612C9.8683 2.10054 10 2.41848 10 2.75V10.255Z" fill="#1A264F"/>
</g>
<defs>
<clipPath id="clip0_86_2558">
<rect width="12" height="12" fill="white"/>
</clipPath>
</defs>
</svg>
