<svg width="8" height="8" viewBox="0 0 8 8" fill="none" xmlns="http://www.w3.org/2000/svg">
<g clip-path="url(#clip0_86_2552)">
<path d="M5.33335 8H2.66669V6.36667L1.38202 7.16667L0.00268555 4.95167L1.53102 4L0.00268555 3.04833L1.38202 0.833333L2.66669 1.63333V0H5.33335V1.63333L6.61802 0.833333L7.99735 3.04933L6.46902 4L7.99735 4.95167L6.61802 7.16667L5.33335 6.36667V8ZM3.33335 7.33333H4.66669V5.16667L6.40435 6.249L7.07935 5.16667L5.20802 4L7.07935 2.83333L6.40435 1.75067L4.66669 2.83333V0.666667H3.33335V2.83333L1.59569 1.75067L0.920686 2.83333L2.79202 4L0.920686 5.16667L1.59569 6.25067L3.33335 5.16667V7.33333Z" fill="#EC9696"/>
</g>
<defs>
<clipPath id="clip0_86_2552">
<rect width="8" height="8" fill="white"/>
</clipPath>
</defs>
</svg>
