<svg width="12" height="12" viewBox="0 0 12 12" fill="none" xmlns="http://www.w3.org/2000/svg">
<g clip-path="url(#clip0_3_370)">
<path d="M1.42459 11.775C1.69761 11.8917 1.99946 11.9234 2.29076 11.8659C2.58207 11.8085 2.84929 11.6646 3.05759 11.453L6.00009 8.5265L8.94259 11.453C9.07979 11.5922 9.24323 11.7028 9.42346 11.7784C9.6037 11.854 9.79714 11.8931 9.99259 11.8935C10.1935 11.8929 10.3923 11.8526 10.5776 11.775C10.8528 11.6636 11.0881 11.4718 11.2527 11.2246C11.4173 10.9775 11.5035 10.6864 11.5001 10.3895V2.5C11.4993 1.8372 11.2356 1.20178 10.767 0.73311C10.2983 0.264441 9.66288 0.000793929 9.00009 0L3.00009 0C2.33729 0.000793929 1.70187 0.264441 1.2332 0.73311C0.764528 1.20178 0.500881 1.8372 0.500087 2.5V10.3895C0.49686 10.6867 0.583375 10.9779 0.748319 11.2251C0.913262 11.4722 1.14896 11.6639 1.42459 11.775Z" fill="#1A264F"/>
</g>
<defs>
<clipPath id="clip0_3_370">
<rect width="12" height="12" fill="white"/>
</clipPath>
</defs>
</svg>
