<svg width="16" height="16" viewBox="0 0 16 16" fill="none" xmlns="http://www.w3.org/2000/svg">
<g clip-path="url(#clip0_6_853)">
<path d="M15.7074 14.2969L12.6107 11.1989C14.9278 8.10235 14.296 3.71368 11.1995 1.39653C8.10296 -0.920614 3.71429 -0.288803 1.39714 2.80771C-0.920003 5.90423 -0.288193 10.2929 2.80832 12.61C5.2957 14.4714 8.71206 14.4714 11.1995 12.61L14.2975 15.7081C14.6869 16.0974 15.3181 16.0974 15.7074 15.7081C16.0967 15.3188 16.0967 14.6876 15.7074 14.2983L15.7074 14.2969ZM7.02971 12.0121C4.27768 12.0121 2.04674 9.78114 2.04674 7.02911C2.04674 4.27707 4.27768 2.04613 7.02971 2.04613C9.78175 2.04613 12.0127 4.27707 12.0127 7.02911C12.0098 9.7799 9.78054 12.0092 7.02971 12.0121Z" fill="#374957"/>
</g>
<defs>
<clipPath id="clip0_6_853">
<rect width="16" height="16" fill="white"/>
</clipPath>
</defs>
</svg>
