<svg width="13" height="12" viewBox="0 0 13 12" fill="none" xmlns="http://www.w3.org/2000/svg">
<path d="M8.10917 12H4.05451V9.55L2.10118 10.75L0.00390625 7.4275L2.32773 6L0.00390625 4.5725L2.10118 1.25L4.05451 2.45V0H8.10917V2.45L10.0625 1.25L12.1598 4.574L9.83595 6L12.1598 7.4275L10.0625 10.75L8.10917 9.55V12ZM5.06817 11H7.0955V7.75L9.73762 9.3735L10.764 7.75L7.9186 6L10.764 4.25L9.73762 2.626L7.0955 4.25V1H5.06817V4.25L2.42606 2.626L1.39972 4.25L4.24508 6L1.39972 7.75L2.42606 9.376L5.06817 7.75V11Z" fill="#626262"/>
</svg>
