<svg width="264" height="40" viewBox="0 0 264 40" fill="none" xmlns="http://www.w3.org/2000/svg">
<rect width="264" height="40" rx="16" fill="#1A264F"/>
<path d="M122.906 13.875C124.969 13.875 126.438 15.0156 126.453 16.7188C126.438 18.1172 125.383 19.1719 123.812 19.4688V20.6094C124.984 20.5469 126.164 20.4375 127.266 20.2812L127.406 21.5469C124.469 22.0781 121.188 22.125 118.797 22.125L118.609 20.7344C119.625 20.7422 120.812 20.7344 122.062 20.6875V19.4688C120.445 19.2031 119.359 18.1406 119.375 16.7188C119.359 15.0156 120.828 13.875 122.906 13.875ZM122.906 15.2031C121.781 15.2031 120.984 15.7656 121 16.7188C120.984 17.6406 121.781 18.2188 122.906 18.2344C124.031 18.2188 124.797 17.6406 124.812 16.7188C124.797 15.7656 124.031 15.2031 122.906 15.2031ZM129.828 13.2812V17.8438H131.734V19.2812H129.828V24.0625H128.094V13.2812H129.828ZM130.328 25.6875V27.0938H120.547V23.1094H122.281V25.6875H130.328ZM145.375 24.3125V25.75H132.469V24.3125H135.891V21.9844H134V17.375H142.125V15.6406H133.969V14.2344H143.844V18.7656H135.734V20.5781H144.172V21.9844H142.109V24.3125H145.375ZM137.578 24.3125H140.406V21.9844H137.578V24.3125Z" fill="white"/>
</svg>
