<svg width="360" height="234" viewBox="0 0 360 234" fill="none" xmlns="http://www.w3.org/2000/svg">
<g filter="url(#filter0_d_98_1642)">
<rect x="20" y="20" width="320" height="194" rx="16" fill="white"/>
</g>
<path d="M133.609 96.2656V110.406H131.859V96.2656H133.609ZM124.344 97.4219V100.953H127.766V97.4219H129.484V107.078H122.609V97.4219H124.344ZM124.344 105.656H127.766V102.312H124.344V105.656ZM143.219 97V102.891H136.406V97H143.219ZM138.125 98.3906V101.531H141.5V98.3906H138.125ZM147.422 96.2656V103.453H145.703V96.2656H147.422ZM147.422 104.094V107.75H139.812V108.891H147.844V110.266H138.094V106.5H145.734V105.453H138.078V104.094H147.422ZM161.344 96.2812V106.703H159.609V101.5H156.766V104.406H150.156V97.2031H151.891V99.4844H155.047V97.2031H156.766V100.094H159.609V96.2812H161.344ZM161.656 108.703V110.109H152.031V105.672H153.797V108.703H161.656ZM151.891 103.031H155.047V100.828H151.891V103.031ZM175.594 98.1562V99.5625H163.922V98.1562H168.906V96.4531H170.625V98.1562H175.594ZM176.25 107.469V108.875H163.344V107.469H168.906V105.734C166.461 105.539 164.984 104.562 165 103C164.984 101.297 166.812 100.281 169.766 100.281C172.672 100.281 174.516 101.297 174.516 103C174.516 104.555 173.031 105.531 170.625 105.719V107.469H176.25ZM169.766 101.641C167.844 101.656 166.766 102.109 166.781 103C166.766 103.906 167.844 104.359 169.766 104.375C171.656 104.359 172.734 103.906 172.734 103C172.734 102.109 171.656 101.656 169.766 101.641ZM192.797 96.2812V106.703H191.062V103.156H188.219V104.406H181.609V97.2031H183.344V99.4844H186.5V97.2031H188.219V98.7188H191.062V96.2812H192.797ZM193.109 108.703V110.109H183.484V105.672H185.25V108.703H193.109ZM183.344 103.031H186.5V100.828H183.344V103.031ZM188.219 101.75H191.062V100.125H188.219V101.75ZM206.625 96.2812V104.531H204.891V102.969H201.531V101.562H204.891V100.047H201.672C200.773 102.297 198.719 103.867 195.641 104.719L194.938 103.344C198.242 102.445 200 100.773 200.281 98.6719H195.688V97.2656H202.172C202.172 97.7578 202.133 98.2266 202.047 98.6719H204.891V96.2812H206.625ZM201.953 104.688C204.812 104.688 206.719 105.766 206.719 107.5C206.719 109.234 204.812 110.312 201.953 110.312C199.062 110.312 197.156 109.234 197.156 107.5C197.156 105.766 199.062 104.688 201.953 104.688ZM201.953 106.047C200.047 106.047 198.891 106.562 198.891 107.5C198.891 108.422 200.047 108.938 201.953 108.938C203.812 108.938 204.984 108.422 204.984 107.5C204.984 106.562 203.812 106.047 201.953 106.047ZM216.688 96.875C218.75 96.875 220.219 98.0156 220.234 99.7188C220.219 101.117 219.164 102.172 217.594 102.469V103.609C218.766 103.547 219.945 103.438 221.047 103.281L221.188 104.547C218.25 105.078 214.969 105.125 212.578 105.125L212.391 103.734C213.406 103.742 214.594 103.734 215.844 103.688V102.469C214.227 102.203 213.141 101.141 213.156 99.7188C213.141 98.0156 214.609 96.875 216.688 96.875ZM216.688 98.2031C215.562 98.2031 214.766 98.7656 214.781 99.7188C214.766 100.641 215.562 101.219 216.688 101.234C217.812 101.219 218.578 100.641 218.594 99.7188C218.578 98.7656 217.812 98.2031 216.688 98.2031ZM223.609 96.2812V100.844H225.516V102.281H223.609V107.062H221.875V96.2812H223.609ZM224.109 108.688V110.094H214.328V106.109H216.062V108.688H224.109ZM239.156 107.312V108.75H226.25V107.312H229.672V104.984H227.781V100.375H235.906V98.6406H227.75V97.2344H237.625V101.766H229.516V103.578H237.953V104.984H235.891V107.312H239.156ZM231.359 107.312H234.188V104.984H231.359V107.312Z" fill="black"/>
<path d="M85.2324 127.449V138.055H83.9199V127.449H85.2324ZM78.2832 128.316V130.965H80.8496V128.316H82.1387V135.559H76.9824V128.316H78.2832ZM78.2832 134.492H80.8496V131.984H78.2832V134.492ZM92.4395 128V132.418H87.3301V128H92.4395ZM88.6191 129.043V131.398H91.1504V129.043H88.6191ZM95.5918 127.449V132.84H94.3027V127.449H95.5918ZM95.5918 133.32V136.062H89.8848V136.918H95.9082V137.949H88.5957V135.125H94.3262V134.34H88.584V133.32H95.5918ZM106.033 127.461V135.277H104.732V131.375H102.6V133.555H97.6426V128.152H98.9434V129.863H101.311V128.152H102.6V130.32H104.732V127.461H106.033ZM106.268 136.777V137.832H99.0488V134.504H100.373V136.777H106.268ZM98.9434 132.523H101.311V130.871H98.9434V132.523ZM116.721 128.867V129.922H107.967V128.867H111.705V127.59H112.994V128.867H116.721ZM117.213 135.852V136.906H107.533V135.852H111.705V134.551C109.871 134.404 108.764 133.672 108.775 132.5C108.764 131.223 110.135 130.461 112.35 130.461C114.529 130.461 115.912 131.223 115.912 132.5C115.912 133.666 114.799 134.398 112.994 134.539V135.852H117.213ZM112.35 131.48C110.908 131.492 110.1 131.832 110.111 132.5C110.1 133.18 110.908 133.52 112.35 133.531C113.768 133.52 114.576 133.18 114.576 132.5C114.576 131.832 113.768 131.492 112.35 131.48ZM129.623 127.461V135.277H128.322V132.617H126.189V133.555H121.232V128.152H122.533V129.863H124.9V128.152H126.189V129.289H128.322V127.461H129.623ZM129.857 136.777V137.832H122.639V134.504H123.963V136.777H129.857ZM122.533 132.523H124.9V130.871H122.533V132.523ZM126.189 131.562H128.322V130.344H126.189V131.562ZM139.994 127.461V133.648H138.693V132.477H136.174V131.422H138.693V130.285H136.279C135.605 131.973 134.064 133.15 131.756 133.789L131.229 132.758C133.707 132.084 135.025 130.83 135.236 129.254H131.791V128.199H136.654C136.654 128.568 136.625 128.92 136.561 129.254H138.693V127.461H139.994ZM136.49 133.766C138.635 133.766 140.064 134.574 140.064 135.875C140.064 137.176 138.635 137.984 136.49 137.984C134.322 137.984 132.893 137.176 132.893 135.875C132.893 134.574 134.322 133.766 136.49 133.766ZM136.49 134.785C135.061 134.785 134.193 135.172 134.193 135.875C134.193 136.566 135.061 136.953 136.49 136.953C137.885 136.953 138.764 136.566 138.764 135.875C138.764 135.172 137.885 134.785 136.49 134.785ZM150.307 127.449V138.055H148.994V127.449H150.307ZM144.6 128.223C146.193 128.223 147.354 129.676 147.365 131.961C147.354 134.27 146.193 135.711 144.6 135.711C142.994 135.711 141.834 134.27 141.834 131.961C141.834 129.676 142.994 128.223 144.6 128.223ZM144.6 129.395C143.697 129.395 143.088 130.344 143.088 131.961C143.088 133.59 143.697 134.539 144.6 134.539C145.49 134.539 146.1 133.59 146.1 131.961C146.1 130.344 145.49 129.395 144.6 129.395ZM163.584 127.449V133.742H162.283V131.152H160.479V130.086H162.283V127.449H163.584ZM159.998 134.012C162.248 134.012 163.619 134.75 163.619 136.027C163.619 137.305 162.248 138.043 159.998 138.043C157.76 138.043 156.389 137.305 156.4 136.027C156.389 134.75 157.76 134.012 159.998 134.012ZM159.998 135.008C158.521 135.008 157.689 135.359 157.689 136.027C157.689 136.684 158.521 137.035 159.998 137.035C161.475 137.035 162.318 136.684 162.318 136.027C162.318 135.359 161.475 135.008 159.998 135.008ZM158.604 129.266C158.604 130.555 159.459 131.855 161.1 132.406L160.443 133.438C159.266 133.039 158.428 132.23 157.971 131.234C157.502 132.365 156.617 133.268 155.357 133.719L154.678 132.688C156.377 132.102 157.279 130.672 157.279 129.277V129.195H155.076V128.141H160.795V129.195H158.604V129.266ZM168.834 129.137C168.834 130.473 169.701 131.727 171.33 132.242L170.627 133.262C169.484 132.875 168.664 132.102 168.213 131.117C167.744 132.242 166.889 133.127 165.67 133.555L164.967 132.535C166.678 131.938 167.521 130.531 167.533 129.02V128.012H168.834V129.137ZM173.439 127.449V130.027H174.916V131.105H173.439V133.789H172.139V127.449H173.439ZM169.994 134.023C172.186 134.012 173.533 134.762 173.545 136.016C173.533 137.293 172.186 138.031 169.994 138.031C167.779 138.031 166.408 137.293 166.408 136.016C166.408 134.762 167.779 134.012 169.994 134.023ZM169.994 135.043C168.541 135.043 167.709 135.395 167.709 136.016C167.709 136.672 168.541 137 169.994 137C171.447 137 172.256 136.672 172.256 136.016C172.256 135.395 171.447 135.043 169.994 135.043ZM179.346 129.266C179.346 130.555 180.201 131.855 181.842 132.406L181.186 133.414C180.002 133.027 179.164 132.225 178.701 131.234C178.238 132.342 177.354 133.232 176.1 133.648L175.432 132.617C177.119 132.066 178.021 130.66 178.021 129.277V129.137H175.818V128.094H181.537V129.137H179.346V129.266ZM184.326 134.27V138.043H183.025V135.312H177.107V134.27H184.326ZM184.326 127.449V133.766H183.025V131.141H181.221V130.074H183.025V127.449H184.326ZM190.643 128.047C192.881 128.047 194.592 129.23 194.592 131.035C194.592 132.863 192.881 134.047 190.643 134.047C188.416 134.047 186.705 132.863 186.717 131.035C186.705 129.23 188.416 128.047 190.643 128.047ZM190.643 129.102C189.107 129.09 187.971 129.863 187.971 131.035C187.971 132.23 189.107 132.98 190.643 132.98C192.189 132.98 193.314 132.23 193.314 131.035C193.314 129.863 192.189 129.09 190.643 129.102ZM195.506 135.641V136.707H185.826V135.641H195.506ZM205.877 135.734V136.812H196.197V135.734H200.369V134.012H197.346V130.543H203.439V129.23H197.322V128.176H204.729V131.574H198.646V132.945H204.975V134.012H201.658V135.734H205.877ZM212.615 127.906C214.162 127.906 215.264 128.762 215.275 130.039C215.264 131.088 214.473 131.879 213.295 132.102V132.957C214.174 132.91 215.059 132.828 215.885 132.711L215.99 133.66C213.787 134.059 211.326 134.094 209.533 134.094L209.393 133.051C210.154 133.057 211.045 133.051 211.982 133.016V132.102C210.77 131.902 209.955 131.105 209.967 130.039C209.955 128.762 211.057 127.906 212.615 127.906ZM212.615 128.902C211.771 128.902 211.174 129.324 211.186 130.039C211.174 130.73 211.771 131.164 212.615 131.176C213.459 131.164 214.033 130.73 214.045 130.039C214.033 129.324 213.459 128.902 212.615 128.902ZM217.807 127.461V130.883H219.236V131.961H217.807V135.547H216.506V127.461H217.807ZM218.182 136.766V137.82H210.846V134.832H212.146V136.766H218.182ZM229.467 135.734V136.812H219.787V135.734H222.354V133.988H220.936V130.531H227.029V129.23H220.912V128.176H228.318V131.574H222.236V132.934H228.564V133.988H227.018V135.734H229.467ZM223.619 135.734H225.74V133.988H223.619V135.734ZM236.463 131.844V132.898H234.318V134.75C235.244 134.709 236.17 134.645 237.049 134.551L237.154 135.512C234.822 135.863 232.373 135.887 230.369 135.887L230.205 134.809C231.078 134.814 232.033 134.814 233.018 134.785V132.898H230.943V128.422H236.416V129.453H232.232V131.844H236.463ZM238.982 127.449V138.055H237.682V127.449H238.982ZM244.408 134.316C244.396 135.213 244.807 136.139 245.721 136.73C246.635 136.092 247.045 135.113 247.057 134.316V133.824H248.334V134.316C248.334 135.418 248.979 136.484 250.396 136.93L249.74 137.902C248.715 137.539 248.035 136.859 247.678 136.004C247.326 136.848 246.693 137.598 245.721 137.984C244.736 137.615 244.109 136.895 243.764 136.039C243.389 136.859 242.715 137.533 241.736 137.902L241.104 136.93C242.475 136.461 243.131 135.359 243.143 134.316V133.824H244.408V134.316ZM243.471 128.012C244.824 128.012 245.914 128.809 246.189 129.98H248.1V127.449H249.4V133.426H248.1V131.035H246.201C245.949 132.242 244.848 133.051 243.471 133.051C241.865 133.051 240.67 132.008 240.67 130.531C240.67 129.066 241.865 128.012 243.471 128.012ZM243.471 129.102C242.58 129.102 241.924 129.664 241.924 130.531C241.924 131.387 242.58 131.973 243.471 131.973C244.338 131.973 244.994 131.387 244.994 130.531C244.994 129.664 244.338 129.102 243.471 129.102ZM253.35 133.801V134.809H258.014V133.801H259.314V137.914H252.061V133.801H253.35ZM253.35 136.883H258.014V135.805H253.35V136.883ZM260.557 132.137V133.203H250.9V132.137H260.557ZM256.396 127.965C256.396 129.102 257.85 130.297 260.041 130.555L259.584 131.586C257.809 131.346 256.408 130.561 255.729 129.488C255.043 130.566 253.637 131.346 251.873 131.586L251.393 130.555C253.607 130.285 255.049 129.137 255.061 127.965V127.566H256.396V127.965ZM270.107 127.449V138.043H268.818V127.449H270.107ZM263.17 128.48V134.27C264.658 134.246 266.24 134.111 267.869 133.789L268.033 134.879C266.17 135.266 264.436 135.383 262.795 135.383H261.881V128.48H263.17ZM279.939 127.449V131.469H281.568V132.535H279.939V138.055H278.639V127.449H279.939ZM277.033 128.457V129.512H273.377V134.375C275.023 134.375 276.324 134.293 277.783 134.035L277.936 135.137C276.295 135.418 274.865 135.465 272.955 135.465H272.076V128.457H277.033ZM283.303 137.094C282.799 137.094 282.389 136.684 282.389 136.18C282.389 135.688 282.799 135.277 283.303 135.277C283.783 135.277 284.205 135.688 284.205 136.18C284.205 136.684 283.783 137.094 283.303 137.094Z" fill="#626262"/>
<defs>
<filter id="filter0_d_98_1642" x="0" y="0" width="360" height="234" filterUnits="userSpaceOnUse" color-interpolation-filters="sRGB">
<feFlood flood-opacity="0" result="BackgroundImageFix"/>
<feColorMatrix in="SourceAlpha" type="matrix" values="0 0 0 0 0 0 0 0 0 0 0 0 0 0 0 0 0 0 127 0" result="hardAlpha"/>
<feOffset/>
<feGaussianBlur stdDeviation="10"/>
<feComposite in2="hardAlpha" operator="out"/>
<feColorMatrix type="matrix" values="0 0 0 0 0.426667 0 0 0 0 0.426667 0 0 0 0 0.426667 0 0 0 1 0"/>
<feBlend mode="normal" in2="BackgroundImageFix" result="effect1_dropShadow_98_1642"/>
<feBlend mode="normal" in="SourceGraphic" in2="effect1_dropShadow_98_1642" result="shape"/>
</filter>
</defs>
</svg>
