<svg width="16" height="16" viewBox="0 0 16 16" fill="none" xmlns="http://www.w3.org/2000/svg">
<path d="M10.6665 16H5.33319V12.7333L2.76385 14.3333L0.00518799 9.90333L3.06185 8L0.00518799 6.09667L2.76385 1.66667L5.33319 3.26667V0H10.6665V3.26667L13.2359 1.66667L15.9945 6.09867L12.9379 8L15.9945 9.90333L13.2359 14.3333L10.6665 12.7333V16ZM6.66652 14.6667H9.33319V10.3333L12.8085 12.498L14.1585 10.3333L10.4159 8L14.1585 5.66667L12.8085 3.50133L9.33319 5.66667V1.33333H6.66652V5.66667L3.19119 3.50133L1.84119 5.66667L5.58385 8L1.84119 10.3333L3.19119 12.5013L6.66652 10.3333V14.6667Z" fill="black"/>
</svg>
