<svg width="83" height="24" viewBox="0 0 83 24" fill="none" xmlns="http://www.w3.org/2000/svg">
<path d="M5.98438 7.29688C5.97917 7.94792 6.10156 8.5625 6.35156 9.14062C6.60156 9.71875 6.97656 10.2292 7.47656 10.6719C7.98177 11.1094 8.59375 11.4427 9.3125 11.6719L8.375 13.0312C7.61458 12.7656 6.96354 12.3854 6.42188 11.8906C5.88542 11.3958 5.46354 10.8073 5.15625 10.125C4.83854 10.9115 4.38281 11.5938 3.78906 12.1719C3.19531 12.7448 2.47917 13.1771 1.64062 13.4688L0.71875 12.0625C1.47917 11.8125 2.1224 11.4505 2.64844 10.9766C3.17448 10.5026 3.57031 9.95573 3.83594 9.33594C4.10156 8.71615 4.23438 8.0625 4.23438 7.375V6.03125H5.98438V7.29688ZM12.6406 13.5781H10.9062V9.42188H8.09375V8H10.9062V5.26562H12.6406V13.5781ZM7.85938 13.9531C8.85417 13.9531 9.71354 14.0599 10.4375 14.2734C11.1667 14.487 11.724 14.7995 12.1094 15.2109C12.4948 15.6172 12.6875 16.1042 12.6875 16.6719C12.6875 17.2396 12.4948 17.7266 12.1094 18.1328C11.724 18.5391 11.1693 18.8464 10.4453 19.0547C9.72135 19.2682 8.85938 19.375 7.85938 19.375C6.86458 19.375 6.00521 19.2682 5.28125 19.0547C4.5625 18.8464 4.01042 18.5391 3.625 18.1328C3.24479 17.7266 3.05729 17.2396 3.0625 16.6719C3.05729 16.1042 3.24479 15.6172 3.625 15.2109C4.01042 14.7995 4.5651 14.487 5.28906 14.2734C6.01302 14.0599 6.86979 13.9531 7.85938 13.9531ZM7.85938 15.2969C6.86979 15.2969 6.10938 15.4167 5.57812 15.6562C5.04688 15.8906 4.78125 16.2292 4.78125 16.6719C4.78125 17.1042 5.04688 17.4375 5.57812 17.6719C6.11458 17.901 6.875 18.0156 7.85938 18.0156C8.84375 18.0156 9.60417 17.8984 10.1406 17.6641C10.6823 17.4297 10.9531 17.099 10.9531 16.6719C10.9531 16.2292 10.6849 15.8906 10.1484 15.6562C9.61198 15.4167 8.84896 15.2969 7.85938 15.2969ZM19.8281 7.6875C19.8281 8.27083 19.9557 8.83854 20.2109 9.39062C20.4661 9.9375 20.8438 10.4297 21.3438 10.8672C21.8438 11.2995 22.4479 11.6354 23.1562 11.875L22.2812 13.2188C21.5104 12.9688 20.8438 12.5911 20.2812 12.0859C19.724 11.5807 19.2865 10.9896 18.9688 10.3125C18.651 11.0677 18.1979 11.7266 17.6094 12.2891C17.0208 12.8464 16.3177 13.2604 15.5 13.5312L14.6094 12.1562C15.3385 11.9167 15.9609 11.5677 16.4766 11.1094C16.9974 10.6458 17.3906 10.1198 17.6562 9.53125C17.9271 8.9375 18.0625 8.32812 18.0625 7.70312V7.51562H15.125V6.125H22.75V7.51562H19.8281V7.6875ZM26.4688 19.3906H24.7344V15.75H16.8438V14.3594H26.4688V19.3906ZM26.4688 13.6875H24.7344V10.1875H22.3281V8.76562H24.7344V5.26562H26.4688V13.6875ZM36.3594 7.15625V7.34375C36.349 8.0625 36.3229 8.71875 36.2812 9.3125C36.2396 9.90625 36.151 10.5729 36.0156 11.3125L34.2969 11.1562C34.4219 10.5 34.5078 9.90625 34.5547 9.375C34.6016 8.83854 34.6328 8.29688 34.6484 7.75H29.1562V6.3125H36.3594V7.15625ZM32.7969 12.3516C34.4688 12.2786 35.9115 12.1562 37.125 11.9844L37.2188 13.2344C35.9167 13.4688 34.5573 13.625 33.1406 13.7031C31.7292 13.776 30.1719 13.8177 28.4688 13.8281L28.3125 12.4375H28.5938L31.0781 12.4062V9.53125H32.7969V12.3516ZM39.7344 9.67188H41.5625V11.125H39.7344V15.8438H37.9531V5.26562H39.7344V9.67188ZM40.1875 19.1094H30.4219V14.9062H32.1719V17.7031H40.1875V19.1094ZM54.0625 19.4062H52.3438V5.26562H54.0625V19.4062ZM49.7188 11.7969H44.8594V14.6406C46.0521 14.6302 47.1458 14.5885 48.1406 14.5156C49.1406 14.4427 50.1615 14.3177 51.2031 14.1406L51.3594 15.5625C50.2396 15.7604 49.138 15.8932 48.0547 15.9609C46.9714 16.0286 45.724 16.0625 44.3125 16.0625H43.0781V10.4219H47.9531V7.90625H43.0625V6.5H49.7188V11.7969Z" fill="#626262"/>
<path d="M76.4142 10.586L72.1212 6.29297L70.7072 7.70697L74.0002 11H64.0002V13H74.0002L70.7072 16.293L72.1212 17.707L76.4142 13.414C76.7891 13.0389 76.9997 12.5303 76.9997 12C76.9997 11.4696 76.7891 10.961 76.4142 10.586Z" fill="#626262"/>
</svg>
