<svg width="51" height="12" viewBox="0 0 51 12" fill="none" xmlns="http://www.w3.org/2000/svg">
<path d="M5.81445 1.48047V8.41797H0.798828V1.48047H5.81445ZM2.07617 2.5V7.375H4.51367V2.5H2.07617ZM8.7207 0.449219V4.51562H10.3496V5.61719H8.7207V11.043H7.41992V0.449219H8.7207ZM19.6074 0.449219V11.0547H18.2949V0.449219H19.6074ZM13.9004 1.22266C15.4941 1.22266 16.6543 2.67578 16.666 4.96094C16.6543 7.26953 15.4941 8.71094 13.9004 8.71094C12.2949 8.71094 11.1348 7.26953 11.1348 4.96094C11.1348 2.67578 12.2949 1.22266 13.9004 1.22266ZM13.9004 2.39453C12.998 2.39453 12.3887 3.34375 12.3887 4.96094C12.3887 6.58984 12.998 7.53906 13.9004 7.53906C14.791 7.53906 15.4004 6.58984 15.4004 4.96094C15.4004 3.34375 14.791 2.39453 13.9004 2.39453ZM30.3652 0.449219V11.043H29.123V0.449219H30.3652ZM28.2559 0.671875V10.5156H27.0137V5.52344H25.8418V4.36328H27.0137V0.671875H28.2559ZM26.1113 1.70312V2.75781H25.3613V7.32812C25.6953 7.29883 26.0117 7.26367 26.3105 7.22266L26.3926 8.17188C24.7285 8.51172 22.5488 8.54688 21.2012 8.54688L21.0488 7.46875L22.0098 7.45703V2.75781H21.2598V1.70312H26.1113ZM23.1816 7.43359L24.166 7.39844V2.75781H23.1816V7.43359ZM40.3496 0.449219V11.0547H39.0371V0.449219H40.3496ZM34.6426 1.22266C36.2363 1.22266 37.3965 2.67578 37.4082 4.96094C37.3965 7.26953 36.2363 8.71094 34.6426 8.71094C33.0371 8.71094 31.877 7.26953 31.877 4.96094C31.877 2.67578 33.0371 1.22266 34.6426 1.22266ZM34.6426 2.39453C33.7402 2.39453 33.1309 3.34375 33.1309 4.96094C33.1309 6.58984 33.7402 7.53906 34.6426 7.53906C35.5332 7.53906 36.1426 6.58984 36.1426 4.96094C36.1426 3.34375 35.5332 2.39453 34.6426 2.39453ZM45.9043 3.46094C45.9043 5.19531 46.9238 7.02344 48.6348 7.73828L47.9199 8.76953C46.666 8.23047 45.752 7.11719 45.2715 5.76953C44.7793 7.22266 43.8535 8.44141 42.6113 9.02734L41.8613 8.00781C43.5371 7.23438 44.5801 5.26562 44.5801 3.46094V2.57031H42.248V1.49219H48.2246V2.57031H45.9043V3.46094ZM50.7207 0.449219V11.043H49.4082V0.449219H50.7207Z" fill="#1A264F"/>
</svg>
