<svg width="41" height="12" viewBox="0 0 41 12" fill="none" xmlns="http://www.w3.org/2000/svg">
<path d="M9.5293 0.449219V11.043H8.28711V0.449219H9.5293ZM7.37305 0.648438V10.5273H6.14258V5.19531H4.61914V4.14062H6.14258V0.648438H7.37305ZM3.68164 3.34375C3.68164 5.13672 4.32617 6.92969 5.83789 7.79688L5.06445 8.75781C4.08594 8.17188 3.43555 7.16406 3.07227 5.95703C2.69727 7.26367 2.02344 8.37695 1.02148 9.00391L0.224609 8.03125C1.75977 7.10547 2.42773 5.18359 2.42773 3.34375V2.64062H0.587891V1.58594H5.39258V2.64062H3.68164V3.34375ZM13.9824 10V8.89844L16.9824 6.00391C17.8379 5.14844 18.2832 4.64453 18.2832 3.92969C18.2832 3.14453 17.6621 2.64062 16.8301 2.64062C15.9512 2.64062 15.3887 3.19141 15.4004 4.04688H13.9473C13.9355 2.44141 15.1426 1.39844 16.8418 1.39844C18.5762 1.39844 19.748 2.42969 19.748 3.85938C19.748 4.82031 19.2793 5.59375 17.6152 7.16406L16.1035 8.66406V8.72266H19.877V10H13.9824ZM29.7324 0.460938V8.19531H28.4316V4.31641H26.5566V3.26172H28.4316V0.460938H29.7324ZM30.002 9.77734V10.832H22.7832V7.51562H24.084V9.77734H30.002ZM24.752 2.57031C24.752 3.84766 25.6074 5.16016 27.248 5.69922L26.5918 6.74219C25.4082 6.33789 24.5703 5.53516 24.1074 4.52734C23.6387 5.64648 22.7539 6.53125 21.5059 6.96484L20.8379 5.91016C22.5254 5.35938 23.4277 3.96484 23.4277 2.55859V2.27734H21.2246V1.22266H26.9434V2.27734H24.752V2.57031ZM36.002 7.07031C38.2988 7.08203 39.752 7.80859 39.7637 9.0625C39.752 10.293 38.2988 11.0312 36.002 11.0312C33.7168 11.0312 32.252 10.293 32.252 9.0625C32.252 7.80859 33.7168 7.08203 36.002 7.07031ZM36.002 8.05469C34.4785 8.05469 33.5527 8.41797 33.5645 9.0625C33.5527 9.68359 34.4785 10.0234 36.002 10.0234C37.5371 10.0234 38.4629 9.68359 38.4746 9.0625C38.4629 8.41797 37.5371 8.05469 36.002 8.05469ZM39.6934 0.953125V1.83203C39.6934 2.66406 39.6934 3.55469 39.4004 4.64453L38.1113 4.52734C38.375 3.49609 38.3926 2.75195 38.3926 1.98438H32.3574V0.953125H39.6934ZM40.8652 5.25391V6.30859H31.2559V5.25391H34.9824V3.33203H36.2715V5.25391H40.8652Z" fill="#626262"/>
</svg>
