<svg width="40" height="12" viewBox="0 0 40 12" fill="none" xmlns="http://www.w3.org/2000/svg">
<path d="M9.5293 0.449219V11.043H8.28711V0.449219H9.5293ZM7.37305 0.648438V10.5273H6.14258V5.19531H4.61914V4.14062H6.14258V0.648438H7.37305ZM3.68164 3.34375C3.68164 5.13672 4.32617 6.92969 5.83789 7.79688L5.06445 8.75781C4.08594 8.17188 3.43555 7.16406 3.07227 5.95703C2.69727 7.26367 2.02344 8.37695 1.02148 9.00391L0.224609 8.03125C1.75977 7.10547 2.42773 5.18359 2.42773 3.34375V2.64062H0.587891V1.58594H5.39258V2.64062H3.68164V3.34375ZM17.4277 1.51562V10H15.8926V3.00391H15.8457L13.8652 4.26953V2.875L15.9629 1.51562H17.4277ZM28.0098 0.460938V8.19531H26.709V4.31641H24.834V3.26172H26.709V0.460938H28.0098ZM28.2793 9.77734V10.832H21.0605V7.51562H22.3613V9.77734H28.2793ZM23.0293 2.57031C23.0293 3.84766 23.8848 5.16016 25.5254 5.69922L24.8691 6.74219C23.6855 6.33789 22.8477 5.53516 22.3848 4.52734C21.916 5.64648 21.0312 6.53125 19.7832 6.96484L19.1152 5.91016C20.8027 5.35938 21.7051 3.96484 21.7051 2.55859V2.27734H19.502V1.22266H25.2207V2.27734H23.0293V2.57031ZM34.2793 7.07031C36.5762 7.08203 38.0293 7.80859 38.041 9.0625C38.0293 10.293 36.5762 11.0312 34.2793 11.0312C31.9941 11.0312 30.5293 10.293 30.5293 9.0625C30.5293 7.80859 31.9941 7.08203 34.2793 7.07031ZM34.2793 8.05469C32.7559 8.05469 31.8301 8.41797 31.8418 9.0625C31.8301 9.68359 32.7559 10.0234 34.2793 10.0234C35.8145 10.0234 36.7402 9.68359 36.752 9.0625C36.7402 8.41797 35.8145 8.05469 34.2793 8.05469ZM37.9707 0.953125V1.83203C37.9707 2.66406 37.9707 3.55469 37.6777 4.64453L36.3887 4.52734C36.6523 3.49609 36.6699 2.75195 36.6699 1.98438H30.6348V0.953125H37.9707ZM39.1426 5.25391V6.30859H29.5332V5.25391H33.2598V3.33203H34.5488V5.25391H39.1426Z" fill="#626262"/>
</svg>
