<svg width="60" height="12" viewBox="0 0 60 12" fill="none" xmlns="http://www.w3.org/2000/svg">
<path d="M29.4688 0.449219V11.043H28.2266V0.449219H29.4688ZM27.3125 0.648438V10.5273H26.082V5.19531H24.5586V4.14062H26.082V0.648438H27.3125ZM23.6211 3.34375C23.6211 5.13672 24.2656 6.92969 25.7773 7.79688L25.0039 8.75781C24.0254 8.17188 23.375 7.16406 23.0117 5.95703C22.6367 7.26367 21.9629 8.37695 20.9609 9.00391L20.1641 8.03125C21.6992 7.10547 22.3672 5.18359 22.3672 3.34375V2.64062H20.5273V1.58594H25.332V2.64062H23.6211V3.34375ZM37.3672 1.51562V10H35.832V3.00391H35.7852L33.8047 4.26953V2.875L35.9023 1.51562H37.3672ZM47.9492 0.460938V8.19531H46.6484V4.31641H44.7734V3.26172H46.6484V0.460938H47.9492ZM48.2188 9.77734V10.832H41V7.51562H42.3008V9.77734H48.2188ZM42.9688 2.57031C42.9688 3.84766 43.8242 5.16016 45.4648 5.69922L44.8086 6.74219C43.625 6.33789 42.7871 5.53516 42.3242 4.52734C41.8555 5.64648 40.9707 6.53125 39.7227 6.96484L39.0547 5.91016C40.7422 5.35938 41.6445 3.96484 41.6445 2.55859V2.27734H39.4414V1.22266H45.1602V2.27734H42.9688V2.57031ZM54.2188 7.07031C56.5156 7.08203 57.9688 7.80859 57.9805 9.0625C57.9688 10.293 56.5156 11.0312 54.2188 11.0312C51.9336 11.0312 50.4688 10.293 50.4688 9.0625C50.4688 7.80859 51.9336 7.08203 54.2188 7.07031ZM54.2188 8.05469C52.6953 8.05469 51.7695 8.41797 51.7812 9.0625C51.7695 9.68359 52.6953 10.0234 54.2188 10.0234C55.7539 10.0234 56.6797 9.68359 56.6914 9.0625C56.6797 8.41797 55.7539 8.05469 54.2188 8.05469ZM57.9102 0.953125V1.83203C57.9102 2.66406 57.9102 3.55469 57.6172 4.64453L56.3281 4.52734C56.5918 3.49609 56.6094 2.75195 56.6094 1.98438H50.5742V0.953125H57.9102ZM59.082 5.25391V6.30859H49.4727V5.25391H53.1992V3.33203H54.4883V5.25391H59.082Z" fill="#626262"/>
<g clip-path="url(#clip0_98_1291)">
<path d="M7.99991 12H3.99991V9.55L2.07291 10.75L0.00390625 7.4275L2.29641 6L0.00390625 4.5725L2.07291 1.25L3.99991 2.45V0H7.99991V2.45L9.92691 1.25L11.9959 4.574L9.70341 6L11.9959 7.4275L9.92691 10.75L7.99991 9.55V12ZM4.99991 11H6.99991V7.75L9.60641 9.3735L10.6189 7.75L7.81191 6L10.6189 4.25L9.60641 2.626L6.99991 4.25V1H4.99991V4.25L2.39341 2.626L1.38091 4.25L4.18791 6L1.38091 7.75L2.39341 9.376L4.99991 7.75V11Z" fill="#626262"/>
</g>
<defs>
<clipPath id="clip0_98_1291">
<rect width="12" height="12" fill="white"/>
</clipPath>
</defs>
</svg>
