<svg width="41" height="12" viewBox="0 0 41 12" fill="none" xmlns="http://www.w3.org/2000/svg">
<path d="M9.22266 0.460938V8.19531H7.92188V4.31641H6.04688V3.26172H7.92188V0.460938H9.22266ZM9.49219 9.77734V10.832H2.27344V7.51562H3.57422V9.77734H9.49219ZM4.24219 2.57031C4.24219 3.84766 5.09766 5.16016 6.73828 5.69922L6.08203 6.74219C4.89844 6.33789 4.06055 5.53516 3.59766 4.52734C3.12891 5.64648 2.24414 6.53125 0.996094 6.96484L0.328125 5.91016C2.01562 5.35938 2.91797 3.96484 2.91797 2.55859V2.27734H0.714844V1.22266H6.43359V2.27734H4.24219V2.57031ZM15.4922 7.07031C17.7891 7.08203 19.2422 7.80859 19.2539 9.0625C19.2422 10.293 17.7891 11.0312 15.4922 11.0312C13.207 11.0312 11.7422 10.293 11.7422 9.0625C11.7422 7.80859 13.207 7.08203 15.4922 7.07031ZM15.4922 8.05469C13.9688 8.05469 13.043 8.41797 13.0547 9.0625C13.043 9.68359 13.9688 10.0234 15.4922 10.0234C17.0273 10.0234 17.9531 9.68359 17.9648 9.0625C17.9531 8.41797 17.0273 8.05469 15.4922 8.05469ZM19.1836 0.953125V1.83203C19.1836 2.66406 19.1836 3.55469 18.8906 4.64453L17.6016 4.52734C17.8652 3.49609 17.8828 2.75195 17.8828 1.98438H11.8477V0.953125H19.1836ZM20.3555 5.25391V6.30859H10.7461V5.25391H14.4727V3.33203H15.7617V5.25391H20.3555ZM24.9492 2.32422C24.9492 3.73047 25.793 5.10156 27.4336 5.66406L26.7188 6.68359C25.5762 6.25 24.7559 5.42383 24.3164 4.38672C23.8535 5.54688 22.9922 6.4668 21.75 6.92969L21.0586 5.89844C22.7578 5.32422 23.625 3.85938 23.6367 2.3125V1.10547H24.9492V2.32422ZM29.9648 0.460938V8.32422H28.6641V3.85938H26.5547V2.79297H28.6641V0.460938H29.9648ZM30.1992 9.77734V10.832H22.9805V7.46875H24.3047V9.77734H30.1992ZM36.0234 1.1875V2.23047H33.1172V3.26172H35.918V4.25781H33.1172V5.37109C34.4121 5.35938 35.3086 5.30664 36.3398 5.11328L36.4805 6.16797C35.2383 6.40234 34.207 6.4375 32.5664 6.4375H31.8633V1.1875H36.0234ZM40.5234 0.460938V6.90625H39.2812V4.15234H38.1797V6.82422H36.9609V0.660156H38.1797V3.10938H39.2812V0.460938H40.5234ZM40.5234 7.375V11.043H39.2227V8.42969H33.2695V7.375H40.5234Z" fill="#1A264F"/>
</svg>
