<svg width="62" height="12" viewBox="0 0 62 12" fill="none" xmlns="http://www.w3.org/2000/svg">
<path d="M29.4688 0.449219V11.043H28.2266V0.449219H29.4688ZM27.3125 0.648438V10.5273H26.082V5.19531H24.5586V4.14062H26.082V0.648438H27.3125ZM23.6211 3.34375C23.6211 5.13672 24.2656 6.92969 25.7773 7.79688L25.0039 8.75781C24.0254 8.17188 23.375 7.16406 23.0117 5.95703C22.6367 7.26367 21.9629 8.37695 20.9609 9.00391L20.1641 8.03125C21.6992 7.10547 22.3672 5.18359 22.3672 3.34375V2.64062H20.5273V1.58594H25.332V2.64062H23.6211V3.34375ZM33.9219 10V8.89844L36.9219 6.00391C37.7773 5.14844 38.2227 4.64453 38.2227 3.92969C38.2227 3.14453 37.6016 2.64062 36.7695 2.64062C35.8906 2.64062 35.3281 3.19141 35.3398 4.04688H33.8867C33.875 2.44141 35.082 1.39844 36.7812 1.39844C38.5156 1.39844 39.6875 2.42969 39.6875 3.85938C39.6875 4.82031 39.2188 5.59375 37.5547 7.16406L36.043 8.66406V8.72266H39.8164V10H33.9219ZM49.6719 0.460938V8.19531H48.3711V4.31641H46.4961V3.26172H48.3711V0.460938H49.6719ZM49.9414 9.77734V10.832H42.7227V7.51562H44.0234V9.77734H49.9414ZM44.6914 2.57031C44.6914 3.84766 45.5469 5.16016 47.1875 5.69922L46.5312 6.74219C45.3477 6.33789 44.5098 5.53516 44.0469 4.52734C43.5781 5.64648 42.6934 6.53125 41.4453 6.96484L40.7773 5.91016C42.4648 5.35938 43.3672 3.96484 43.3672 2.55859V2.27734H41.1641V1.22266H46.8828V2.27734H44.6914V2.57031ZM55.9414 7.07031C58.2383 7.08203 59.6914 7.80859 59.7031 9.0625C59.6914 10.293 58.2383 11.0312 55.9414 11.0312C53.6562 11.0312 52.1914 10.293 52.1914 9.0625C52.1914 7.80859 53.6562 7.08203 55.9414 7.07031ZM55.9414 8.05469C54.418 8.05469 53.4922 8.41797 53.5039 9.0625C53.4922 9.68359 54.418 10.0234 55.9414 10.0234C57.4766 10.0234 58.4023 9.68359 58.4141 9.0625C58.4023 8.41797 57.4766 8.05469 55.9414 8.05469ZM59.6328 0.953125V1.83203C59.6328 2.66406 59.6328 3.55469 59.3398 4.64453L58.0508 4.52734C58.3145 3.49609 58.332 2.75195 58.332 1.98438H52.2969V0.953125H59.6328ZM60.8047 5.25391V6.30859H51.1953V5.25391H54.9219V3.33203H56.2109V5.25391H60.8047Z" fill="#626262"/>
<g clip-path="url(#clip0_98_1299)">
<path d="M7.99991 12H3.99991V9.55L2.07291 10.75L0.00390625 7.4275L2.29641 6L0.00390625 4.5725L2.07291 1.25L3.99991 2.45V0H7.99991V2.45L9.92691 1.25L11.9959 4.574L9.70341 6L11.9959 7.4275L9.92691 10.75L7.99991 9.55V12ZM4.99991 11H6.99991V7.75L9.60641 9.3735L10.6189 7.75L7.81191 6L10.6189 4.25L9.60641 2.626L6.99991 4.25V1H4.99991V4.25L2.39341 2.626L1.38091 4.25L4.18791 6L1.38091 7.75L2.39341 9.376L4.99991 7.75V11Z" fill="#626262"/>
</g>
<defs>
<clipPath id="clip0_98_1299">
<rect width="12" height="12" fill="white"/>
</clipPath>
</defs>
</svg>
