<svg width="31" height="12" viewBox="0 0 31 12" fill="none" xmlns="http://www.w3.org/2000/svg">
<path d="M10.0801 6.61328V7.64453H5.86133V11.043H4.57227V7.64453H0.400391V6.61328H10.0801ZM2.86133 0.871094V2.17188H7.5957V0.871094H8.9082V5.51172H1.57227V0.871094H2.86133ZM2.86133 4.45703H7.5957V3.20312H2.86133V4.45703ZM19.6543 0.460938V8.19531H18.3535V4.31641H16.4785V3.26172H18.3535V0.460938H19.6543ZM19.9238 9.77734V10.832H12.7051V7.51562H14.0059V9.77734H19.9238ZM14.6738 2.57031C14.6738 3.84766 15.5293 5.16016 17.1699 5.69922L16.5137 6.74219C15.3301 6.33789 14.4922 5.53516 14.0293 4.52734C13.5605 5.64648 12.6758 6.53125 11.4277 6.96484L10.7598 5.91016C12.4473 5.35938 13.3496 3.96484 13.3496 2.55859V2.27734H11.1465V1.22266H16.8652V2.27734H14.6738V2.57031ZM25.9238 7.07031C28.2207 7.08203 29.6738 7.80859 29.6855 9.0625C29.6738 10.293 28.2207 11.0312 25.9238 11.0312C23.6387 11.0312 22.1738 10.293 22.1738 9.0625C22.1738 7.80859 23.6387 7.08203 25.9238 7.07031ZM25.9238 8.05469C24.4004 8.05469 23.4746 8.41797 23.4863 9.0625C23.4746 9.68359 24.4004 10.0234 25.9238 10.0234C27.459 10.0234 28.3848 9.68359 28.3965 9.0625C28.3848 8.41797 27.459 8.05469 25.9238 8.05469ZM29.6152 0.953125V1.83203C29.6152 2.66406 29.6152 3.55469 29.3223 4.64453L28.0332 4.52734C28.2969 3.49609 28.3145 2.75195 28.3145 1.98438H22.2793V0.953125H29.6152ZM30.7871 5.25391V6.30859H21.1777V5.25391H24.9043V3.33203H26.1934V5.25391H30.7871Z" fill="#626262"/>
</svg>
