<svg width="41" height="12" viewBox="0 0 41 12" fill="none" xmlns="http://www.w3.org/2000/svg">
<path d="M9.17578 0.449219V11.043H7.875V0.449219H9.17578ZM0.398438 8.10156C1.24219 8.0957 2.19727 8.0957 3.19922 8.06641V7.09375C2.00391 6.90625 1.23047 6.17383 1.23047 5.17188C1.23047 3.97656 2.28516 3.17969 3.83203 3.17969C5.39062 3.17969 6.46875 3.97656 6.46875 5.17188C6.46875 6.16797 5.68945 6.89453 4.5 7.08203V8.01953C5.43164 7.97852 6.36914 7.90234 7.25391 7.78516L7.34766 8.75781C5.01562 9.15625 2.49609 9.17969 0.585938 9.17969L0.398438 8.10156ZM7.06641 1.66797V2.69922H0.621094V1.66797H3.19922V0.484375H4.5V1.66797H7.06641ZM3.83203 4.17578C3.03516 4.1875 2.46094 4.55078 2.47266 5.17188C2.46094 5.78125 3.03516 6.14453 3.83203 6.13281C4.66406 6.14453 5.21484 5.78125 5.21484 5.17188C5.21484 4.55078 4.66406 4.1875 3.83203 4.17578ZM19.6055 0.460938V8.47656H18.293V7.55078H16.2188V6.63672H18.293V0.460938H19.6055ZM19.8516 9.77734V10.832H12.082V7.70312H13.3828V9.77734H19.8516ZM10.6758 5.21875C12.6328 5.20703 15.2578 5.18359 17.5078 4.90234L17.5781 5.83984C16.7051 5.98633 15.8027 6.08594 14.9062 6.14453V8.18359H13.6055V6.21484C12.6152 6.25586 11.6719 6.26172 10.8398 6.26172L10.6758 5.21875ZM14.1328 0.847656C15.6797 0.847656 16.7578 1.60938 16.7695 2.72266C16.7578 3.85938 15.6797 4.58594 14.1328 4.58594C12.5625 4.58594 11.4844 3.85938 11.4844 2.72266C11.4844 1.60938 12.5625 0.847656 14.1328 0.847656ZM14.1328 1.80859C13.2891 1.80859 12.7148 2.14844 12.7148 2.72266C12.7148 3.29688 13.2891 3.63672 14.1328 3.63672C14.9414 3.63672 15.5156 3.29688 15.5273 2.72266C15.5156 2.14844 14.9414 1.80859 14.1328 1.80859ZM26.4844 0.90625V1.94922H22.8281V2.76953H26.2734V3.75391H22.8281V4.64453C24.7148 4.63867 25.8281 4.60352 27.1523 4.41016L27.2695 5.41797C25.8164 5.65234 24.5742 5.6875 22.3711 5.6875H21.5273V0.90625H26.4844ZM29.4492 0.449219V2.61719H30.9258V3.67188H29.4492V5.92188H28.1484V0.449219H29.4492ZM29.4492 6.37891V9.09766H23.8242V9.94141H29.7773V10.9492H22.5352V8.14844H28.1484V7.39844H22.5234V6.37891H29.4492ZM37.8281 5.39453V6.42578H35.6367V7.89062C36.5566 7.83789 37.4824 7.75586 38.3555 7.63281L38.4609 8.57031C36.082 9.03906 33.5391 9.03906 31.6758 9.05078L31.5117 7.98438C32.3379 7.97852 33.3105 7.97266 34.3359 7.9375V6.42578H32.2852V1.35156H37.793V2.39453H33.5977V3.37891H37.582V4.38672H33.5977V5.39453H37.8281ZM40.2891 0.449219V11.0547H38.9883V0.449219H40.2891Z" fill="#AEACAC"/>
</svg>
