<svg width="42" height="12" viewBox="0 0 42 12" fill="none" xmlns="http://www.w3.org/2000/svg">
<path d="M10.2891 8.73438V9.8125H0.609375V8.73438H4.78125V7.01172H1.75781V3.54297H7.85156V2.23047H1.73438V1.17578H9.14062V4.57422H3.05859V5.94531H9.38672V7.01172H6.07031V8.73438H10.2891ZM19.4062 1.48047V2.67578C19.4062 4.09375 19.4062 5.55859 19.0195 7.78516L17.6953 7.66797C18.1055 5.58203 18.1055 4.04688 18.1055 2.67578V2.53516H12V1.48047H19.4062ZM20.6367 8.52344V9.58984H10.9805V8.52344H20.6367ZM24.1992 1.22266C25.793 1.22266 26.9414 2.67578 26.9531 4.96094C26.9414 7.26953 25.793 8.71094 24.1992 8.71094C22.5938 8.71094 21.4336 7.26953 21.4453 4.96094C21.4336 2.67578 22.5938 1.22266 24.1992 1.22266ZM24.1992 2.39453C23.3086 2.39453 22.6992 3.34375 22.6992 4.96094C22.6992 6.58984 23.3086 7.53906 24.1992 7.53906C25.1016 7.53906 25.6992 6.58984 25.6992 4.96094C25.6992 3.34375 25.1016 2.39453 24.1992 2.39453ZM29.6484 0.449219V4.51562H31.2773V5.61719H29.6484V11.043H28.3477V0.449219H29.6484ZM41.3789 5.16016V6.23828H37.1719V7.29297H35.8828V6.23828H31.7227V5.16016H41.3789ZM37.1836 7.97266C37.1836 8.94531 38.4727 9.8125 40.6641 10L40.2656 10.9844C38.4961 10.8203 37.1602 10.2051 36.5156 9.29688C35.8711 10.1934 34.5527 10.8203 32.8008 10.9844L32.3672 10C34.5352 9.8125 35.8477 8.91016 35.8477 7.97266V7.72656H37.1836V7.97266ZM36.5391 0.589844C38.8945 0.589844 40.3477 1.30469 40.3594 2.57031C40.3477 3.82422 38.8945 4.55078 36.5391 4.53906C34.207 4.55078 32.7188 3.82422 32.7188 2.57031C32.7188 1.30469 34.207 0.589844 36.5391 0.589844ZM36.5391 1.57422C34.9688 1.5625 34.0664 1.92578 34.0781 2.57031C34.0664 3.19141 34.9688 3.55469 36.5391 3.55469C38.0977 3.55469 39.0117 3.19141 39.0117 2.57031C39.0117 1.92578 38.0977 1.5625 36.5391 1.57422Z" fill="#626262"/>
</svg>
