<svg width="45" height="36" viewBox="0 0 45 36" fill="none" xmlns="http://www.w3.org/2000/svg">
<g clip-path="url(#clip0_98_1265)">
<path d="M29.7355 0.765302C29.2822 0.312767 28.6679 0.0585938 28.0275 0.0585938C27.387 0.0585938 26.7727 0.312767 26.3195 0.765302L15.4768 11.608C15.1663 11.9167 14.9201 12.284 14.7525 12.6885C14.5848 13.093 14.4991 13.5268 14.5001 13.9646V15.3333C14.5001 15.5101 14.5704 15.6797 14.6954 15.8047C14.8204 15.9297 14.99 16 15.1668 16H16.5355C16.9733 16.0012 17.407 15.9156 17.8116 15.748C18.2161 15.5805 18.5834 15.3344 18.8921 15.024L29.7355 4.18064C30.1878 3.72743 30.4418 3.11328 30.4418 2.47297C30.4418 1.83266 30.1878 1.21851 29.7355 0.765302ZM17.9495 14.0813C17.5735 14.4548 17.0654 14.6651 16.5355 14.6666H15.8335V13.9646C15.8328 13.7019 15.8842 13.4416 15.9848 13.1989C16.0854 12.9562 16.2331 12.7359 16.4195 12.5506L24.6481 4.32197L26.1815 5.8553L17.9495 14.0813ZM28.7921 3.23797L27.1215 4.9093L25.5881 3.3793L27.2595 1.70797C27.3601 1.60751 27.4796 1.52786 27.6111 1.47358C27.7425 1.41929 27.8834 1.39143 28.0256 1.39158C28.1679 1.39174 28.3087 1.41991 28.44 1.47448C28.5714 1.52905 28.6907 1.60896 28.7911 1.70964C28.8916 1.81032 28.9712 1.9298 29.0255 2.06126C29.0798 2.19272 29.1077 2.33359 29.1075 2.47581C29.1074 2.61804 29.0792 2.75885 29.0246 2.89019C28.9701 3.02153 28.8901 3.14084 28.7895 3.2413L28.7921 3.23797Z" fill="#626262"/>
</g>
<path d="M10.9805 24.4609V32.1953H9.67969V28.3164H7.80469V27.2617H9.67969V24.4609H10.9805ZM11.25 33.7773V34.832H4.03125V31.5156H5.33203V33.7773H11.25ZM6 26.5703C6 27.8477 6.85547 29.1602 8.49609 29.6992L7.83984 30.7422C6.65625 30.3379 5.81836 29.5352 5.35547 28.5273C4.88672 29.6465 4.00195 30.5312 2.75391 30.9648L2.08594 29.9102C3.77344 29.3594 4.67578 27.9648 4.67578 26.5586V26.2773H2.47266V25.2227H8.19141V26.2773H6V26.5703ZM17.25 31.0703C19.5469 31.082 21 31.8086 21.0117 33.0625C21 34.293 19.5469 35.0312 17.25 35.0312C14.9648 35.0312 13.5 34.293 13.5 33.0625C13.5 31.8086 14.9648 31.082 17.25 31.0703ZM17.25 32.0547C15.7266 32.0547 14.8008 32.418 14.8125 33.0625C14.8008 33.6836 15.7266 34.0234 17.25 34.0234C18.7852 34.0234 19.7109 33.6836 19.7227 33.0625C19.7109 32.418 18.7852 32.0547 17.25 32.0547ZM20.9414 24.9531V25.832C20.9414 26.6641 20.9414 27.5547 20.6484 28.6445L19.3594 28.5273C19.623 27.4961 19.6406 26.752 19.6406 25.9844H13.6055V24.9531H20.9414ZM22.1133 29.2539V30.3086H12.5039V29.2539H16.2305V27.332H17.5195V29.2539H22.1133ZM31.7227 24.4609V32.2773H30.4219V29.6172H28.2891V30.5547H23.332V25.1523H24.6328V26.8633H27V25.1523H28.2891V26.2891H30.4219V24.4609H31.7227ZM31.957 33.7773V34.832H24.7383V31.5039H26.0625V33.7773H31.957ZM24.6328 29.5234H27V27.8711H24.6328V29.5234ZM28.2891 28.5625H30.4219V27.3438H28.2891V28.5625ZM42.0938 24.4609V30.6484H40.793V29.4766H38.2734V28.4219H40.793V27.2852H38.3789C37.7051 28.9727 36.1641 30.1504 33.8555 30.7891L33.3281 29.7578C35.8066 29.084 37.125 27.8301 37.3359 26.2539H33.8906V25.1992H38.7539C38.7539 25.5684 38.7246 25.9199 38.6602 26.2539H40.793V24.4609H42.0938ZM38.5898 30.7656C40.7344 30.7656 42.1641 31.5742 42.1641 32.875C42.1641 34.1758 40.7344 34.9844 38.5898 34.9844C36.4219 34.9844 34.9922 34.1758 34.9922 32.875C34.9922 31.5742 36.4219 30.7656 38.5898 30.7656ZM38.5898 31.7852C37.1602 31.7852 36.293 32.1719 36.293 32.875C36.293 33.5664 37.1602 33.9531 38.5898 33.9531C39.9844 33.9531 40.8633 33.5664 40.8633 32.875C40.8633 32.1719 39.9844 31.7852 38.5898 31.7852Z" fill="#626262"/>
<defs>
<clipPath id="clip0_98_1265">
<rect width="16" height="16" fill="white" transform="translate(14.5)"/>
</clipPath>
</defs>
</svg>
