<svg width="82" height="12" viewBox="0 0 82 12" fill="none" xmlns="http://www.w3.org/2000/svg">
<path d="M9.16406 0.449219V11.0547H7.85156V0.449219H9.16406ZM2.21484 1.31641V3.96484H4.78125V1.31641H6.07031V8.55859H0.914062V1.31641H2.21484ZM2.21484 7.49219H4.78125V4.98438H2.21484V7.49219ZM16.3711 1V5.41797H11.2617V1H16.3711ZM12.5508 2.04297V4.39844H15.082V2.04297H12.5508ZM19.5234 0.449219V5.83984H18.2344V0.449219H19.5234ZM19.5234 6.32031V9.0625H13.8164V9.91797H19.8398V10.9492H12.5273V8.125H18.2578V7.33984H12.5156V6.32031H19.5234ZM29.9648 0.460938V8.27734H28.6641V4.375H26.5312V6.55469H21.5742V1.15234H22.875V2.86328H25.2422V1.15234H26.5312V3.32031H28.6641V0.460938H29.9648ZM30.1992 9.77734V10.832H22.9805V7.50391H24.3047V9.77734H30.1992ZM22.875 5.52344H25.2422V3.87109H22.875V5.52344ZM40.6523 1.86719V2.92188H31.8984V1.86719H35.6367V0.589844H36.9258V1.86719H40.6523ZM41.1445 8.85156V9.90625H31.4648V8.85156H35.6367V7.55078C33.8027 7.4043 32.6953 6.67188 32.707 5.5C32.6953 4.22266 34.0664 3.46094 36.2812 3.46094C38.4609 3.46094 39.8438 4.22266 39.8438 5.5C39.8438 6.66602 38.7305 7.39844 36.9258 7.53906V8.85156H41.1445ZM36.2812 4.48047C34.8398 4.49219 34.0312 4.83203 34.043 5.5C34.0312 6.17969 34.8398 6.51953 36.2812 6.53125C37.6992 6.51953 38.5078 6.17969 38.5078 5.5C38.5078 4.83203 37.6992 4.49219 36.2812 4.48047ZM53.5547 0.460938V8.27734H52.2539V5.61719H50.1211V6.55469H45.1641V1.15234H46.4648V2.86328H48.832V1.15234H50.1211V2.28906H52.2539V0.460938H53.5547ZM53.7891 9.77734V10.832H46.5703V7.50391H47.8945V9.77734H53.7891ZM46.4648 5.52344H48.832V3.87109H46.4648V5.52344ZM50.1211 4.5625H52.2539V3.34375H50.1211V4.5625ZM63.9258 0.460938V6.64844H62.625V5.47656H60.1055V4.42188H62.625V3.28516H60.2109C59.5371 4.97266 57.9961 6.15039 55.6875 6.78906L55.1602 5.75781C57.6387 5.08398 58.957 3.83008 59.168 2.25391H55.7227V1.19922H60.5859C60.5859 1.56836 60.5566 1.91992 60.4922 2.25391H62.625V0.460938H63.9258ZM60.4219 6.76562C62.5664 6.76562 63.9961 7.57422 63.9961 8.875C63.9961 10.1758 62.5664 10.9844 60.4219 10.9844C58.2539 10.9844 56.8242 10.1758 56.8242 8.875C56.8242 7.57422 58.2539 6.76562 60.4219 6.76562ZM60.4219 7.78516C58.9922 7.78516 58.125 8.17188 58.125 8.875C58.125 9.56641 58.9922 9.95312 60.4219 9.95312C61.8164 9.95312 62.6953 9.56641 62.6953 8.875C62.6953 8.17188 61.8164 7.78516 60.4219 7.78516Z" fill="#626262"/>
<g clip-path="url(#clip0_98_1392)">
<path d="M79.4999 4.212V3.5C79.4999 2.57174 79.1312 1.6815 78.4748 1.02513C77.8184 0.368749 76.9282 0 75.9999 0C75.0717 0 74.1814 0.368749 73.5251 1.02513C72.8687 1.6815 72.4999 2.57174 72.4999 3.5V4.212C72.0546 4.40635 71.6756 4.72626 71.4092 5.13261C71.1428 5.53895 71.0006 6.01412 70.9999 6.5V9.5C71.0007 10.1628 71.2644 10.7982 71.733 11.2669C72.2017 11.7356 72.8371 11.9992 73.4999 12H78.4999C79.1627 11.9992 79.7982 11.7356 80.2668 11.2669C80.7355 10.7982 80.9991 10.1628 80.9999 9.5V6.5C80.9993 6.01412 80.8571 5.53895 80.5907 5.13261C80.3243 4.72626 79.9453 4.40635 79.4999 4.212ZM73.4999 3.5C73.4999 2.83696 73.7633 2.20107 74.2322 1.73223C74.701 1.26339 75.3369 1 75.9999 1C76.663 1 77.2989 1.26339 77.7677 1.73223C78.2365 2.20107 78.4999 2.83696 78.4999 3.5V4H73.4999V3.5ZM79.9999 9.5C79.9999 9.89782 79.8419 10.2794 79.5606 10.5607C79.2793 10.842 78.8978 11 78.4999 11H73.4999C73.1021 11 72.7206 10.842 72.4393 10.5607C72.158 10.2794 71.9999 9.89782 71.9999 9.5V6.5C71.9999 6.10218 72.158 5.72064 72.4393 5.43934C72.7206 5.15804 73.1021 5 73.4999 5H78.4999C78.8978 5 79.2793 5.15804 79.5606 5.43934C79.8419 5.72064 79.9999 6.10218 79.9999 6.5V9.5Z" fill="#626262"/>
<path d="M75.9999 7C75.8673 7 75.7402 7.05268 75.6464 7.14645C75.5526 7.24021 75.4999 7.36739 75.4999 7.5V8.5C75.4999 8.63261 75.5526 8.75978 75.6464 8.85355C75.7402 8.94732 75.8673 9 75.9999 9C76.1326 9 76.2597 8.94732 76.3535 8.85355C76.4473 8.75978 76.4999 8.63261 76.4999 8.5V7.5C76.4999 7.36739 76.4473 7.24021 76.3535 7.14645C76.2597 7.05268 76.1326 7 75.9999 7Z" fill="#626262"/>
</g>
<defs>
<clipPath id="clip0_98_1392">
<rect width="12" height="12" fill="white" transform="translate(70)"/>
</clipPath>
</defs>
</svg>
